<svg width="20" height="20" xmlns="http://www.w3.org/2000/svg">

 <g>
  <title>background</title>
  <rect  fill="none"  id="canvas_background" height="22" width="22" y="-1" x="-1"/>
 </g>
 <g>
  <title>Layer 1</title>
  <g stroke="null" id="svg_1">
   <g stroke="null" id="svg_2">
    <path fill="#bcbcbc" stroke="null" id="svg_3" d="m2.467738,10.690283l-0.468711,2.808856c-0.045713,0.280899 0.057172,0.561754 0.274359,0.720543c0.114303,0.097713 0.262941,0.13435 0.400121,0.13435c0.114303,0 0.228646,-0.024439 0.320073,-0.085472l2.743594,-1.575394c0.594432,2.74778 3.45237,4.836093 6.870404,4.836093c0.240065,0 0.480129,-0.012198 0.720194,-0.036637l3.532378,2.027237c0.102885,0.061076 0.217188,0.085472 0.320073,0.085472c0.13718,0 0.285778,-0.048835 0.400121,-0.13435c0.217188,-0.158746 0.320073,-0.439645 0.274359,-0.720543l-0.468711,-2.808856c1.406092,-1.11131 2.206294,-2.650067 2.206294,-4.298735c0,-2.735582 -2.252047,-5.116992 -5.395722,-5.739822c-0.297196,-3.016438 -3.303731,-5.410045 -6.96183,-5.410045c-3.852491,0 -6.984747,2.637869 -6.984747,5.886327c0.011418,1.660909 0.81166,3.211864 2.217752,4.310976zm15.764209,0.952564c0,1.282297 -0.708775,2.503519 -1.954811,3.346171c-0.228646,0.158746 -0.354367,0.451843 -0.308654,0.744939l0.297236,1.783018l-2.469235,-1.416648c-0.125762,-0.073274 -0.262941,-0.097713 -0.400121,-0.085472c-0.262941,0.024439 -0.537301,0.048835 -0.788783,0.048835c-2.823602,0 -5.167116,-1.648668 -5.555779,-3.785816c0.057172,0 0.125762,0 0.182893,0c3.45237,0 6.321685,-2.12495 6.881863,-4.897169c2.412104,0.537358 4.115392,2.283739 4.115392,4.262141zm-10.985796,-9.672186c3.097962,0 5.61295,1.978402 5.61295,4.420887s-2.514988,4.420844 -5.61295,4.420844c-0.251483,0 -0.525842,-0.012198 -0.788783,-0.048835c-0.13718,-0.012198 -0.274359,0.012198 -0.400121,0.085472l-2.469235,1.416648l0.297236,-1.783018c0.045713,-0.293097 -0.06859,-0.586193 -0.308654,-0.744939c-1.246036,-0.842653 -1.954811,-2.063874 -1.954811,-3.346171c0.011418,-2.430288 2.526407,-4.420887 5.624368,-4.420887z"/>
   </g>
  </g>
 </g>
</svg>