<svg width="14" height="14" xmlns="http://www.w3.org/2000/svg">

 <g>
  <title>background</title>
  <rect fill="none" id="canvas_background" height="16" width="16" y="-1" x="-1"/>
 </g>
 <g>
  <title>Layer 1</title>
  <g stroke="null" id="svg_1">
   <g stroke="null" id="refresh">
    <path fill="#a6a6a6" stroke="null" id="svg_2" d="m11.724816,2.293718c-1.181231,-1.277323 -2.868704,-2.043717 -4.724924,-2.043717c-3.71244,0 -6.749892,3.065576 -6.749892,6.812391s3.037451,6.812391 6.749892,6.812391c3.121825,0 5.737408,-2.214027 6.496771,-5.109294l-1.771847,0c-0.674989,1.958563 -2.531209,3.406196 -4.724924,3.406196c-2.78433,0 -5.062419,-2.299182 -5.062419,-5.109294c0,-2.810111 2.278088,-5.109294 5.062419,-5.109294c1.434352,0 2.615583,0.596084 3.543693,1.532788l-2.699957,2.724957l5.906155,0l0,-5.960843l-2.024968,2.043717z"/>
   </g>
  </g>
  <g id="svg_3"/>
  <g id="svg_4"/>
  <g id="svg_5"/>
  <g id="svg_6"/>
  <g id="svg_7"/>
  <g id="svg_8"/>
  <g id="svg_9"/>
  <g id="svg_10"/>
  <g id="svg_11"/>
  <g id="svg_12"/>
  <g id="svg_13"/>
  <g id="svg_14"/>
  <g id="svg_15"/>
  <g id="svg_16"/>
  <g id="svg_17"/>
 </g>
</svg>