<svg width="40" height="40" xmlns="http://www.w3.org/2000/svg">

 <g>
  <title>background</title>
  <rect fill="none" id="canvas_background" height="42" width="42" y="-1" x="-1"/>
 </g>
 <g>
  <title>Layer 1</title>
  <g stroke="null" id="svg_1">
   <g stroke="null" id="svg_2">
    <path fill="#d5d5d5" stroke="null" id="svg_3" d="m20.08,0c-11.089269,0 -20.079,9.214767 -20.079,20.579998c0,11.365231 8.989731,20.579998 20.079,20.579998c11.089269,0 20.079,-9.216087 20.079,-20.579998c0,-11.365231 -8.988443,-20.579998 -20.079,-20.579998zm0,37.197223c-8.940755,0 -16.212449,-7.453975 -16.212449,-16.617225c0,-9.163251 7.271694,-16.617225 16.212449,-16.617225c8.940755,0 16.212449,7.453975 16.212449,16.617225c0,9.164571 -7.271694,16.617225 -16.212449,16.617225z"/>
    <path fill="#d5d5d5" stroke="null" id="svg_4" d="m28.549036,19.259073l-5.725073,0c-0.300302,-0.656499 -0.815842,-1.183548 -1.455112,-1.491323l0,-9.659918c0,-0.72915 -0.574827,-1.320924 -1.28885,-1.320924c-0.712734,0 -1.28885,0.591774 -1.28885,1.320924l0,9.659918c-1.032369,0.497988 -1.750259,1.565295 -1.750259,2.812247c0,1.721164 1.361026,3.11606 3.039109,3.11606c1.216675,0 2.258066,-0.738397 2.743962,-1.795136l5.725073,0c0.712734,0 1.28885,-0.591774 1.28885,-1.320924s-0.576116,-1.320924 -1.28885,-1.320924z"/>
   </g>
  </g>
 </g>
</svg>