<svg width="40" height="40" xmlns="http://www.w3.org/2000/svg">

 <g>
  <title>background</title>
  <rect fill="none" id="canvas_background" height="42" width="42" y="-1" x="-1"/>
 </g>
 <g>
  <title>Layer 1</title>
  <g stroke="null" id="svg_1">
   <path  fill="#d5d5d5" stroke="null" id="svg_2" d="m31.97135,39.476002c-0.300515,0 -0.598999,-0.09686 -0.855045,-0.285935l-9.673527,-7.146383l-5.188345,4.065893c-0.406913,0.318664 -0.931392,0.398938 -1.403891,0.214949c-0.471889,-0.184431 -0.830273,-0.610127 -0.958195,-1.13799l-2.605137,-10.752303l-9.308442,-3.876375c-0.586004,-0.244139 -0.974642,-0.854709 -0.978906,-1.538033c-0.004264,-0.683325 0.376659,-1.299644 0.95982,-1.552408l35.394131,-15.338318c0.160613,-0.074303 0.330566,-0.117205 0.501941,-0.128704c0.061321,-0.003981 0.122846,-0.003981 0.183964,-0.000221c0.354932,0.022999 0.70357,0.180451 0.975657,0.47103c0.028224,0.030075 0.055027,0.060814 0.080408,0.092879c0.225386,0.280406 0.349247,0.62229 0.372598,0.970586c0.005685,0.087572 0.005279,0.176249 -0.001827,0.264927c-0.004873,0.063246 -0.013198,0.126271 -0.024975,0.188854l-5.974354,34.139479c-0.096043,0.548429 -0.438792,1.007517 -0.912306,1.22136c-0.187822,0.084918 -0.386202,0.126714 -0.583567,0.126714zm-9.679212,-10.813116l8.616852,6.365535l4.648637,-26.564304l-16.789633,17.59528l3.483534,2.573635c0.01401,0.009509 0.027412,0.019682 0.04061,0.029854zm-7.173163,-1.415522l1.153733,4.761159l2.485744,-1.948028l-3.254899,-2.404684c-0.151273,-0.111455 -0.280819,-0.250331 -0.384578,-0.408447zm-8.406086,-8.269777l6.391622,2.661428c0.457879,0.190623 0.803471,0.609906 0.92855,1.126048l0.810577,3.345637c0.037158,-0.385891 0.197771,-0.749004 0.458691,-1.022555l15.998142,-16.76556l-24.587583,10.655001z"/>
  </g>
 </g>
</svg>