<svg width="16" height="16" xmlns="http://www.w3.org/2000/svg">

 <g>
  <title>background</title>
  <rect fill="none" id="canvas_background" height="18" width="18" y="-1" x="-1"/>
 </g>
 <g>
  <title>Layer 1</title>
  <g stroke="null" id="svg_1">
   <path fill="#a6a6a6" stroke="null" id="svg_2" d="m14.804988,0.680691c-0.667098,-0.412212 -1.411169,0.382768 -1.847348,0.853868c-1.000605,1.118861 -1.847306,2.414385 -2.79668,3.592134c-1.051962,1.295524 -2.026951,2.591047 -3.104571,3.857175c-0.615783,0.706649 -1.282881,1.472186 -1.693402,2.355497c-0.923674,-1.030578 -1.71906,-2.14944 -2.745365,-3.062147c-0.744071,-0.647762 -1.975636,-1.118861 -1.949979,0.441656c0.051315,2.031665 1.61643,4.2105 2.771022,5.594307c0.487495,0.588874 1.128935,1.207192 1.873006,1.236636c0.898016,0.058887 1.82169,-1.177749 2.3605,-1.854954c0.949374,-1.177749 1.719102,-2.502764 2.591419,-3.709909c1.128935,-1.589961 2.283528,-3.150526 3.386805,-4.769931c0.692756,-1.001086 2.873653,-3.474407 1.154593,-4.534333zm-13.008451,7.920408c-0.025658,0 -0.051315,0 -0.10263,0.029396c-0.10263,-0.029396 -0.179603,-0.058887 -0.282234,-0.117775l0,0c0.076973,-0.058887 0.205261,-0.029444 0.384864,0.088379z"/>
  </g>
  <g id="svg_3"/>
  <g id="svg_4"/>
  <g id="svg_5"/>
  <g id="svg_6"/>
  <g id="svg_7"/>
  <g id="svg_8"/>
  <g id="svg_9"/>
  <g id="svg_10"/>
  <g id="svg_11"/>
  <g id="svg_12"/>
  <g id="svg_13"/>
  <g id="svg_14"/>
  <g id="svg_15"/>
  <g id="svg_16"/>
  <g id="svg_17"/>
 </g>
</svg>