<?xml version="1.0" encoding="iso-8859-1"?>
<!-- Generator: Adobe Illustrator 19.0.0, SVG Export Plug-In . SVG Version: 6.00 Build 0)  -->
<svg version="1.1" id="Capa_1" xmlns="http://www.w3.org/2000/svg" xmlns:xlink="http://www.w3.org/1999/xlink" x="0px" y="0px"
	 viewBox="0 0 512 512" style="enable-background:new 0 0 512 512;" xml:space="preserve">
<g>
	<g>
		<path d="M437.005,256c5.132-5.843,9.965-11.706,14.398-17.574c32.912-43.574,42.255-82.792,26.301-110.426
			c-1.028-1.78-2.177-3.495-3.407-5.16c5.792-7.861,9.259-17.535,9.259-28.025c0-26.139-21.269-47.407-47.407-47.407
			c-25.816,0-46.843,20.757-47.359,46.452c-13.252,0.535-27.434,2.351-42.251,5.328C325.916,38.5,293.327,0,256,0
			c-37.329,0-69.92,38.507-90.543,99.204C102.602,86.73,52.961,95.682,34.296,128c-15.954,27.634-6.611,66.852,26.301,110.426
			c4.434,5.868,9.267,11.731,14.399,17.574c-5.132,5.842-9.965,11.706-14.399,17.574c-32.912,43.574-42.255,82.792-26.301,110.421
			c3.482,6.036,8.125,11.364,13.811,15.9c-0.425,2.546-0.7,5.143-0.7,7.808c0,26.139,21.269,47.407,47.407,47.407
			c23.096,0,42.362-16.613,46.542-38.512c7.803-0.92,15.831-2.179,24.088-3.841C186.067,473.477,218.663,512,256,512
			c37.333,0,69.927-38.515,90.551-99.222c18.035,3.579,35.017,5.449,50.454,5.449c38.347,0,67.394-11.185,80.699-34.227
			c15.954-27.634,6.611-66.852-26.301-110.426C446.97,267.706,442.137,261.842,437.005,256z M436.148,66.37
			c15.685,0,28.444,12.759,28.444,28.444s-12.759,28.444-28.444,28.444c-12.582,0-23.264-8.219-27.005-19.564
			c0.007-0.134,0.045-0.258,0.047-0.395c0.02-1.684-0.438-3.249-1.192-4.628c-0.174-1.265-0.294-2.546-0.294-3.858
			C407.704,79.13,420.463,66.37,436.148,66.37z M345.255,177.558c-10.421-6.943-21.226-13.663-32.366-20.095
			c-11.281-6.514-22.545-12.529-33.729-18.066c18.586-7.464,36.858-13.506,54.343-17.946
			C338.367,138.697,342.344,157.55,345.255,177.558z M256,18.963c28.399,0,54.36,33.156,71.91,84.496
			c-23.079,5.923-47.341,14.418-71.829,25.147c-24.906-10.953-49.141-19.346-71.984-25.163
			C201.646,52.112,227.604,18.963,256,18.963z M178.439,121.664c17.29,4.403,35.53,10.402,54.222,17.847
			c-11.234,5.55-22.448,11.543-33.55,17.952c-11.139,6.432-21.943,13.151-32.365,20.095
			C169.646,157.632,173.602,138.853,178.439,121.664z M50.722,137.482c9.759-16.907,32.5-24.986,63.056-24.986
			c13.876,0,29.403,1.727,46.014,4.988c-6.372,22.667-11.192,47.854-14.157,74.864c-21.54,15.83-41.002,32.57-57.704,49.677
			c-4.334-5.002-8.412-10.016-12.199-15.029C48.106,190.426,38.991,157.801,50.722,137.482z M143.431,294.169
			c-15.704-12.359-30.044-25.166-42.66-38.169c12.616-13.004,26.956-25.81,42.66-38.168C142.638,230.26,142.222,243,142.222,256
			S142.638,281.74,143.431,294.169z M94.815,436.148c-15.685,0-28.444-12.759-28.444-28.444S79.13,379.26,94.815,379.26
			s28.444,12.759,28.444,28.444S110.5,436.148,94.815,436.148z M141.1,397.549c-4.666-21.271-23.634-37.252-46.285-37.252
			c-16.281,0-30.668,8.257-39.207,20.799c-1.899-2.037-3.534-4.233-4.886-6.576c-11.731-20.32-2.616-52.945,25.009-89.514
			c3.787-5.013,7.865-10.027,12.199-15.029c16.701,17.106,36.164,33.848,57.704,49.677c2.966,27.015,7.788,52.207,14.162,74.877
			C153.42,395.768,147.176,396.786,141.1,397.549z M166.747,334.442c10.421,6.943,21.226,13.663,32.365,20.095
			c11.245,6.492,22.463,12.442,33.61,17.965c-18.539,7.398-36.789,13.397-54.284,17.831
			C173.601,373.146,169.646,354.368,166.747,334.442z M256,493.037c-28.414,0-54.388-33.193-71.937-84.581
			c23.106-5.931,47.387-14.398,71.845-25.093c24.905,10.951,49.152,19.383,71.994,25.201
			C310.352,459.891,284.396,493.037,256,493.037z M333.567,390.322c-17.318-4.409-35.566-10.368-54.289-17.83
			c11.272-5.558,22.51-11.546,33.611-17.955c11.14-6.432,21.944-13.152,32.366-20.095
			C342.356,354.363,338.402,373.138,333.567,390.322z M348.282,309.323c-14.148,10.05-29.148,19.709-44.875,28.788
			c-15.645,9.032-31.542,17.19-47.391,24.428c-15.72-7.169-31.613-15.301-47.424-24.428c-15.726-9.079-30.727-18.738-44.875-28.788
			c-1.653-17.203-2.533-35.06-2.533-53.323s0.88-36.12,2.533-53.323c14.148-10.049,29.149-19.71,44.875-28.788
			c15.657-9.04,31.514-17.222,47.288-24.464c15.753,7.181,31.682,15.316,47.527,24.464c15.727,9.079,30.727,18.74,44.875,28.788
			c1.653,17.203,2.532,35.06,2.532,53.323S349.935,292.12,348.282,309.323z M392.273,112.705
			c7.078,17.292,24.067,29.518,43.875,29.518c8.731,0,16.892-2.414,23.926-6.55c0.399,0.604,0.844,1.184,1.204,1.809
			c11.731,20.319,2.616,52.944-25.009,89.514c-3.786,5.013-7.863,10.027-12.199,15.029c-16.701-17.107-36.163-33.848-57.703-49.677
			c-2.974-27.093-7.815-52.354-14.216-75.077C366.295,114.537,379.757,112.986,392.273,112.705z M368.571,217.832
			c15.704,12.358,30.044,25.164,42.66,38.168c-12.616,13.003-26.956,25.81-42.66,38.169c0.793-12.429,1.207-25.169,1.207-38.169
			S369.364,230.26,368.571,217.832z M461.278,374.518c-14.196,24.588-55.876,30.47-109.074,20.017
			c6.374-22.672,11.197-47.866,14.163-74.883c21.539-15.829,41.001-32.571,57.703-49.677c4.336,5.002,8.413,10.016,12.199,15.029
			C463.894,321.574,473.009,354.199,461.278,374.518z"/>
	</g>
</g>
<g>
</g>
<g>
</g>
<g>
</g>
<g>
</g>
<g>
</g>
<g>
</g>
<g>
</g>
<g>
</g>
<g>
</g>
<g>
</g>
<g>
</g>
<g>
</g>
<g>
</g>
<g>
</g>
<g>
</g>
</svg>
