<?xml version="1.0" encoding="iso-8859-1"?>
<!-- Generator: Adobe Illustrator 18.1.1, SVG Export Plug-In . SVG Version: 6.00 Build 0)  -->
<svg version="1.1" id="Capa_1" xmlns="http://www.w3.org/2000/svg" xmlns:xlink="http://www.w3.org/1999/xlink" x="0px" y="0px"
	 viewBox="0 0 174.239 174.239" style="enable-background:new 0 0 174.239 174.239;" xml:space="preserve">
<g>
	<path d="M162.896,44.292c-0.108-0.245-0.193-0.495-0.33-0.732c-0.219-0.38-0.479-0.719-0.751-1.044
		c-7.404-12.351-17.753-22.698-30.105-30.1c-0.322-0.268-0.657-0.526-1.032-0.743c-0.238-0.138-0.489-0.223-0.734-0.331
		C117.283,4.157,102.689,0,87.12,0C71.549,0,56.953,4.158,44.29,11.344c-0.244,0.108-0.493,0.192-0.73,0.328
		c-0.375,0.217-0.709,0.475-1.032,0.743c-12.355,7.404-22.706,17.754-30.11,30.109c-0.269,0.323-0.528,0.659-0.745,1.035
		c-0.137,0.237-0.222,0.487-0.33,0.732C4.157,56.954,0,71.55,0,87.12c0,48.037,39.082,87.12,87.12,87.12s87.12-39.082,87.12-87.12
		C174.239,71.55,170.082,56.954,162.896,44.292z M87.12,159.305c-37.28,0-68.047-28.412-71.797-64.717h7.835
		c4.125,0,7.467-3.345,7.467-7.467s-3.342-7.467-7.467-7.467h-7.835c0.8-7.746,2.875-15.107,5.936-21.935l6.734,3.889
		c1.177,0.681,2.46,1.001,3.726,1.001c2.582,0,5.09-1.337,6.473-3.734c2.064-3.573,0.839-8.138-2.732-10.2l-6.697-3.867
		c4.476-6.155,9.886-11.566,16.041-16.042l3.865,6.695c1.383,2.397,3.894,3.734,6.476,3.734c1.266,0,2.55-0.321,3.726-1.001
		c3.571-2.061,4.796-6.626,2.735-10.2l-3.888-6.735c6.828-3.061,14.188-5.136,21.934-5.935v7.833c0,4.123,3.342,7.467,7.467,7.467
		s7.467-3.345,7.467-7.467v-7.833c7.746,0.8,15.106,2.874,21.934,5.935l-3.888,6.735c-2.061,3.573-0.836,8.138,2.735,10.2
		c1.177,0.681,2.46,1.001,3.726,1.001c2.581,0,5.093-1.337,6.476-3.734l3.865-6.695c6.155,4.476,11.565,9.887,16.041,16.042
		l-6.697,3.867c-3.571,2.061-4.796,6.626-2.732,10.2c1.383,2.397,3.892,3.734,6.473,3.734c1.266,0,2.55-0.321,3.726-1.001
		l6.734-3.889c3.061,6.828,5.136,14.189,5.936,21.935h-7.835c-4.125,0-7.467,3.345-7.467,7.467s3.342,7.467,7.467,7.467h7.835
		C155.167,130.893,124.4,159.305,87.12,159.305z"/>
	<path d="M108.582,90.576c-2.98-9.577-10.879-22.067-14.746-27.822c-2.776-4.123-9.621-4.123-12.397,0
		c-3.834,5.71-11.641,18.05-14.676,27.597c-0.261,0.804-0.563,1.589-0.731,2.43c-0.357,1.503-0.58,2.92-0.58,4.174
		c0,12.237,9.952,22.188,22.186,22.188s22.188-9.952,22.188-22.188c0-1.257-0.225-2.677-0.584-4.184
		C109.09,92.011,108.81,91.305,108.582,90.576z M87.637,104.208c-0.49,0-0.968-0.052-1.431-0.145
		c-3.235-0.664-5.677-3.535-5.677-6.963c0-3.918,3.189-7.108,7.108-7.108c3.918,0,7.108,3.189,7.108,7.108
		c0,3.428-2.442,6.299-5.677,6.963C88.605,104.156,88.128,104.208,87.637,104.208z"/>
</g>
<g>
</g>
<g>
</g>
<g>
</g>
<g>
</g>
<g>
</g>
<g>
</g>
<g>
</g>
<g>
</g>
<g>
</g>
<g>
</g>
<g>
</g>
<g>
</g>
<g>
</g>
<g>
</g>
<g>
</g>
</svg>
