<svg width="15" height="15" xmlns="http://www.w3.org/2000/svg">

 <g>
  <title>background</title>
  <rect fill="none" id="canvas_background" height="17" width="17" y="-1" x="-1"/>
 </g>
 <g>
  <title>Layer 1</title>
  <g stroke="null" id="svg_1">
   <path stroke="null" id="svg_2" d="m9.842438,1.962763c-2.172085,-2.172246 -5.707314,-2.172246 -7.879399,0c-2.171614,2.172717 -2.171614,5.707738 0,7.880456c1.9343,1.933973 4.946873,2.141167 7.117545,0.631002c0.045674,0.216142 0.150205,0.422394 0.318302,0.590504l3.163249,3.163484c0.460974,0.460066 1.205877,0.460066 1.664496,0c0.460503,-0.460537 0.460503,-1.205495 0,-1.66462l-3.163249,-3.164426c-0.167156,-0.166697 -0.373864,-0.271707 -0.58999,-0.317384c1.510995,-2.171304 1.303816,-5.18363 -0.630955,-7.119016zm-0.998698,6.881684c-1.621648,1.621768 -4.260827,1.621768 -5.882004,0c-1.620706,-1.621768 -1.620706,-4.260673 0,-5.882441c1.621177,-1.621297 4.260357,-1.621297 5.882004,0c1.621648,1.621768 1.621648,4.260673 0,5.882441z"/>
  </g>
 </g>
</svg>