<svg width="42" height="42" xmlns="http://www.w3.org/2000/svg">
 <g>
  <title>background</title>
  <rect x="-1" y="-1" width="44" height="44" id="canvas_background" fill="none"/>
 </g>

 <g>
  <title>Layer 1</title>
  <g stroke="null" id="svg_1">
   <g stroke="null" id="svg_2">
    <g stroke="null" id="svg_3">
     <path stroke="null" d="m6.242363,11.802987l28.848279,0c2.33997,0 4.242363,-1.750326 4.242363,-3.901456s-1.902394,-3.901529 -4.242363,-3.901529l-28.848279,0c-2.33989,0 -4.242363,1.750326 -4.242363,3.901456s1.902473,3.901529 4.242363,3.901529z" id="svg_4"/>
     <path stroke="null" d="m35.090642,17.265011l-28.848279,0c-2.33989,0 -4.242363,1.750326 -4.242363,3.901529s1.902473,3.901456 4.242363,3.901456l28.848279,0c2.33997,0 4.242363,-1.750326 4.242363,-3.901456s-1.902394,-3.901529 -4.242363,-3.901529z" id="svg_5"/>
     <path stroke="null" d="m35.090642,30.530094l-28.848279,0c-2.33989,0 -4.242363,1.750326 -4.242363,3.901456s1.902473,3.901456 4.242363,3.901456l28.848279,0c2.33997,0 4.242363,-1.750326 4.242363,-3.901456s-1.902394,-3.901456 -4.242363,-3.901456z" id="svg_6"/>
    </g>
   </g>
  </g>
 </g>
</svg>