<svg width="15" height="15" xmlns="http://www.w3.org/2000/svg">

 <g>
  <title>background</title>
  <rect fill="none" id="canvas_background" y="0" x="0"/>
 </g>
 <g>
  <title>Layer 1</title>
  <g stroke="null" id="svg_1">
   <path stroke="null" id="svg_2" d="m12.674901,2.473774c-0.941763,-1.035358 -2.130269,-1.718963 -3.436891,-1.976923c-1.275805,-0.251887 -2.575601,-0.083703 -3.758668,0.486181l0.635792,1.595121c1.864548,-0.898157 3.999802,-0.455851 5.439582,1.127063c1.912673,2.102695 1.912673,5.524056 0,7.626751c-1.912673,2.102727 -5.024898,2.102727 -6.937599,0c-0.968134,-1.064348 -1.470003,-2.480947 -1.438761,-3.929028l1.901059,0.590779l-0.642788,-2.789508l-0.642817,-2.789571l-1.876048,2.006817l-1.876105,2.006755l1.577187,0.490105c-0.055235,0.722188 -0.010679,1.453156 0.135141,2.167746c0.268666,1.316703 0.871374,2.519124 1.743004,3.47738c1.225754,1.3475 2.855484,2.089617 4.588914,2.089617c0.000113,0 -0.000057,0 0.000057,0c1.733316,0 3.363245,-0.74221 4.588999,-2.089617c1.225725,-1.347531 1.900748,-3.139205 1.900748,-5.044912c-0.000028,-1.905582 -0.675079,-3.697256 -1.900805,-5.044756z"/>
  </g>
 </g>
</svg>