<svg width="42" height="42" xmlns="http://www.w3.org/2000/svg">

 <g>
  <title>background</title>
  <rect fill="none" id="canvas_background" height="44" width="44" y="-1" x="-1"/>
 </g>
 <g>
  <title>Layer 1</title>
  <g stroke="null" id="Settings">
   <g stroke="null" id="svg_1">
    <path stroke="null" id="svg_2" fill-rule="evenodd" clip-rule="evenodd" d="m39.642846,18.785938c-0.059709,-0.530856 -0.678573,-0.929772 -1.213705,-0.929772c-1.730151,0 -3.265441,-1.016046 -3.909313,-2.587398c-0.657781,-1.609431 -0.233637,-3.486398 1.055793,-4.669373c0.40588,-0.371094 0.455192,-0.9923 0.114781,-1.423814c-0.885517,-1.124663 -1.891997,-2.140568 -2.990921,-3.02102c-0.430325,-0.34538 -1.061693,-0.297325 -1.434838,0.115923c-1.125336,1.246487 -3.146726,1.709757 -4.708709,1.057919c-1.625485,-0.683875 -2.65051,-2.331244 -2.550199,-4.099594c0.033015,-0.555446 -0.372864,-1.038388 -0.926541,-1.102883c-1.410252,-0.163135 -2.832868,-0.168194 -4.247335,-0.011241c-0.547354,0.06042 -0.953234,0.531981 -0.93483,1.080401c0.061535,1.750927 -0.975853,3.369491 -2.585182,4.028776c-1.543298,0.63048 -3.550498,0.171144 -4.673586,-1.064242c-0.371178,-0.406924 -0.992291,-0.456947 -1.424723,-0.119857c-1.131518,0.887899 -2.160617,1.904648 -3.054282,3.020036c-0.348559,0.433622 -0.29728,1.062134 0.112674,1.435195c1.314016,1.190141 1.7383,3.083408 1.055652,4.711386c-0.651739,1.552102 -2.263176,2.552411 -4.107968,2.552411c-0.598634,-0.01925 -1.025025,0.382616 -1.090494,0.926961c-0.166061,1.418615 -0.168028,2.864067 -0.008148,4.294204c0.059287,0.533105 0.696978,0.928507 1.23801,0.928507c1.64403,-0.042013 3.222451,0.976 3.884586,2.587539c0.660028,1.609431 0.235745,3.485274 -1.055652,4.669232c-0.403913,0.371094 -0.455192,0.991316 -0.114781,1.42283c0.877228,1.117496 1.883849,2.134386 2.986706,3.022144c0.432573,0.348612 1.061974,0.299432 1.436946,-0.113815c1.129551,-1.249578 3.1508,-1.712005 4.706601,-1.058903c1.629559,0.681767 2.654584,2.328996 2.554274,4.09833c-0.032734,0.555727 0.375112,1.039512 0.926541,1.103024c0.721423,0.084167 1.447202,0.12618 2.174947,0.12618c0.690796,0 1.381733,-0.037938 2.072529,-0.114799c0.547495,-0.06042 0.953093,-0.531981 0.934689,-1.081385c-0.063362,-1.749943 0.975853,-3.368508 2.583074,-4.026668c1.553694,-0.634695 3.552465,-0.170161 4.675693,1.063961c0.373286,0.406081 0.990043,0.45512 1.424863,0.119155c1.12941,-0.885791 2.156402,-1.901697 3.054282,-3.020177c0.348419,-0.432638 0.299247,-1.062134 -0.112815,-1.435055c-1.314016,-1.190141 -1.740407,-3.083689 -1.05776,-4.710543c0.641765,-1.531446 2.193351,-2.559717 3.862248,-2.559717l0.233497,0.006042c0.541313,0.04398 1.039355,-0.373061 1.104965,-0.925697c0.166342,-1.419879 0.168309,-2.864067 0.008429,-4.294204zm-18.731012,8.434969c-3.472666,0 -6.297385,-2.825146 -6.297385,-6.298335c0,-3.473049 2.82472,-6.298335 6.297385,-6.298335c3.472525,0 6.297245,2.825286 6.297245,6.298335c0,3.473189 -2.82472,6.298335 -6.297245,6.298335z"/>
   </g>
  </g>
 </g>
</svg>