<svg width="42" height="42" xmlns="http://www.w3.org/2000/svg">

 <g>
  <title>background</title>
  <rect fill="none" id="canvas_background" height="44" width="44" y="-1" x="-1"/>
 </g>
 <g>
  <title>Layer 1</title>
  <g stroke="null" id="svg_1">
   <g stroke="null" id="svg_2">
    <path stroke="null" id="svg_3" d="m35.145771,20.996704c0.405885,-0.410761 0.788123,-0.822927 1.138725,-1.235446c2.602981,-3.063236 3.341911,-5.820247 2.080123,-7.762906c-0.081304,-0.125133 -0.172177,-0.245697 -0.269457,-0.362746c0.458084,-0.552625 0.732286,-1.232704 0.732286,-1.970147c0,-1.837562 -1.682146,-3.332694 -3.749378,-3.332694c-2.041765,0 -3.704771,1.459209 -3.745581,3.265558c-1.048089,0.03761 -2.169731,0.165274 -3.341594,0.374556c-1.631055,-4.266344 -4.20849,-6.972879 -7.160649,-6.972879c-2.952318,0 -5.529911,2.707028 -7.160966,6.974004c-4.971146,-0.876918 -8.897209,-0.247595 -10.373407,2.024348c-1.261788,1.94266 -0.522858,4.699671 2.080123,7.762906c0.350681,0.412518 0.732919,0.824685 1.138804,1.235446c-0.405885,0.41069 -0.788123,0.822927 -1.138804,1.235446c-2.602981,3.063236 -3.341911,5.820247 -2.080123,7.762555c0.275388,0.424329 0.642599,0.798885 1.0923,1.117764c-0.033613,0.178983 -0.055362,0.361551 -0.055362,0.548899c0,1.837562 1.682146,3.332694 3.749378,3.332694c1.826642,0 3.350373,-1.167888 3.680966,-2.707379c0.617132,-0.064676 1.25206,-0.153183 1.905099,-0.270021c1.631055,4.268593 4.209044,6.976746 7.161994,6.976746c2.952634,0 5.530464,-2.70759 7.161598,-6.975269c1.426372,0.251602 2.769464,0.383063 3.990362,0.383063c3.03283,0 5.330132,-0.786301 6.382412,-2.406145c1.261788,-1.94266 0.522858,-4.699671 -2.080123,-7.762906c-0.350602,-0.412518 -0.73284,-0.824755 -1.138725,-1.235446zm-0.067779,-13.330918c1.240513,0 2.249611,0.896953 2.249611,1.999603s-1.009098,1.999603 -2.249611,1.999603c-0.995099,0 -1.839929,-0.577793 -2.135802,-1.375342c0.000554,-0.00942 0.003559,-0.018137 0.003717,-0.027768c0.001582,-0.118385 -0.034641,-0.228403 -0.094274,-0.325347c-0.013762,-0.088929 -0.023252,-0.178983 -0.023252,-0.271216c0,-1.102509 1.009098,-1.999532 2.249611,-1.999532zm-7.188647,7.816475c-0.824188,-0.48809 -1.678746,-0.960504 -2.559798,-1.412671c-0.892204,-0.457932 -1.783064,-0.880784 -2.667597,-1.270033c1.46995,-0.524716 2.915067,-0.949467 4.29794,-1.261597c0.384689,1.212387 0.699227,2.537746 0.929455,3.944301zm-7.059099,-11.149169c2.246052,0 4.299284,2.330854 5.687298,5.940037c-1.825298,0.416385 -3.744158,1.01358 -5.680892,1.767825c-1.969793,-0.769992 -3.886518,-1.360017 -5.693151,-1.768949c1.387935,-3.60855 3.44093,-5.938912 5.686745,-5.938912zm-6.134231,7.219842c1.367451,0.309529 2.810036,0.731257 4.28837,1.254637c-0.888487,0.390163 -1.775392,0.811469 -2.65344,1.262019c-0.880974,0.452167 -1.735452,0.92451 -2.559719,1.412671c0.229358,-1.40079 0.542235,-2.720947 0.924789,-3.929327zm-10.101024,1.111999c0.771831,-1.188556 2.570396,-1.756506 4.987043,-1.756506c1.097441,0 2.325457,0.121407 3.639206,0.350655c-0.503956,1.593482 -0.885165,3.364118 -1.119665,5.262911c-1.70358,1.112843 -3.242812,2.289659 -4.563758,3.492274c-0.342772,-0.351639 -0.665298,-0.704121 -0.964808,-1.056533c-2.184916,-2.570857 -2.905813,-4.864383 -1.978019,-6.292801zm7.332273,11.015037c-1.242015,-0.868833 -2.376153,-1.76916 -3.373942,-2.683266c0.997788,-0.914176 2.131926,-1.814433 3.373942,-2.683196c-0.062718,0.873684 -0.095619,1.769301 -0.095619,2.683196s0.032901,1.809512 0.095619,2.683266zm-3.844996,9.981071c-1.240513,0 -2.249611,-0.896953 -2.249611,-1.999603s1.009098,-1.999603 2.249611,-1.999603s2.249611,0.896953 2.249611,1.999603s-1.009098,1.999603 -2.249611,1.999603zm3.66064,-2.713495c-0.36903,-1.495343 -1.869192,-2.618802 -3.66064,-2.618802c-1.28765,0 -2.425505,0.580464 -3.100847,1.462162c-0.15019,-0.1432 -0.279501,-0.297578 -0.386429,-0.46229c-0.927794,-1.428488 -0.206897,-3.722014 1.97794,-6.292801c0.29951,-0.352412 0.622036,-0.704894 0.964808,-1.056533c1.320867,1.202545 2.860179,2.379502 4.563758,3.492274c0.234578,1.899144 0.615946,3.670133 1.12006,5.263825c-0.504272,0.086961 -0.998105,0.158526 -1.47865,0.212164zm2.028399,-4.436398c0.824188,0.48809 1.678746,0.960504 2.559719,1.412671c0.889357,0.456385 1.776579,0.874668 2.658185,1.262933c-1.466233,0.520077 -2.909609,0.941804 -4.293273,1.253513c-0.382554,-1.20824 -0.695351,-2.528326 -0.924631,-3.929116zm7.058941,11.149169c-2.247238,0 -4.301499,-2.333455 -5.689434,-5.946013c1.827433,-0.416947 3.747796,-1.012174 5.682157,-1.764029c1.969714,0.769851 3.887388,1.362618 5.693942,1.771621c-1.388014,3.608269 -3.440851,5.93842 -5.686665,5.93842zm6.134705,-7.220826c-1.369665,-0.309951 -2.812883,-0.728867 -4.293669,-1.253442c0.891492,-0.390725 1.780296,-0.811679 2.658264,-1.26223c0.881053,-0.452167 1.735532,-0.924581 2.559798,-1.412671c-0.229279,1.400439 -0.541998,2.720314 -0.924394,3.928343zm1.163796,-5.694199c-1.118953,0.706511 -2.305289,1.385535 -3.549124,2.023786c-1.237349,0.634946 -2.494629,1.208451 -3.748112,1.717279c-1.243281,-0.503978 -2.500244,-1.075655 -3.750722,-1.717279c-1.243755,-0.63825 -2.430171,-1.317274 -3.549124,-2.023786c-0.130734,-1.209364 -0.200333,-2.464705 -0.200333,-3.748587s0.069598,-2.539222 0.200333,-3.748587c1.118953,-0.706441 2.305369,-1.385606 3.549124,-2.023786c1.238298,-0.635509 2.492414,-1.2107 3.739966,-1.71981c1.245891,0.504822 2.505701,1.076709 3.758868,1.71981c1.243834,0.63825 2.430171,1.317415 3.549124,2.023786c0.130734,1.209364 0.200254,2.464705 0.200254,3.748587s-0.069519,2.539222 -0.200254,3.748587zm3.479209,-13.822172c0.559793,1.215621 1.903438,2.075104 3.470035,2.075104c0.690527,0 1.335973,-0.169703 1.892286,-0.460463c0.031557,0.042461 0.066751,0.083235 0.095223,0.127172c0.927794,1.428418 0.206897,3.721943 -1.97794,6.292801c-0.299431,0.352412 -0.621878,0.704894 -0.964808,1.056533c-1.320867,-1.202616 -2.8601,-2.379502 -4.563679,-3.492274c-0.235211,-1.904628 -0.618081,-3.680467 -1.124331,-5.277885c1.118636,-0.192199 2.183334,-0.301234 3.173213,-0.320988zm-1.87457,7.390389c1.242015,0.868763 2.376153,1.76902 3.373942,2.683196c-0.997788,0.914106 -2.131926,1.814433 -3.373942,2.683266c0.062718,-0.873754 0.095461,-1.769371 0.095461,-2.683266s-0.032743,-1.809512 -0.095461,-2.683196zm7.332114,11.014967c-1.122749,1.728527 -4.419183,2.14203 -8.626566,1.407188c0.504114,-1.593833 0.885561,-3.364962 1.120139,-5.264247c1.7035,-1.112773 3.242733,-2.289729 4.563679,-3.492274c0.34293,0.351639 0.665377,0.704121 0.964808,1.056533c2.184837,2.570857 2.905734,4.864383 1.97794,6.292801z"/>
   </g>
  </g>
 </g>
</svg>