<svg width="42" height="42" xmlns="http://www.w3.org/2000/svg">
 <g>
  <title>background</title>
  <rect x="-1" y="-1" width="44" height="44" id="canvas_background" fill="none"/>
 </g>

 <g>
  <title>Layer 1</title>
  <g stroke="null" id="svg_1">
   <path stroke="null" d="m20.5,2c-10.752406,0 -19.5,8.523298 -19.5,19.000002s8.747595,19.000002 19.5,19.000002s19.5,-8.523298 19.5,-19.000002s-8.747595,-19.000002 -19.5,-19.000002zm0,33.730548c-8.335986,0 -15.118192,-6.608303 -15.118192,-14.730547c0,-8.122244 6.782206,-14.730547 15.118192,-14.730547s15.118192,6.608303 15.118192,14.730547c0,8.122244 -6.782206,14.730547 -15.118192,14.730547z" id="svg_2" stroke-width="0"/>
   <path stroke="null" d="m21.200947,18.395666c-0.1404,-0.249362 -0.409395,-0.403827 -0.700946,-0.403827c-0.291446,0 -0.560441,0.154567 -0.700946,0.403827c-0.035943,0.062957 -0.881189,1.564059 -1.740665,3.319762c-1.797584,3.671622 -1.797584,4.674822 -1.797584,5.004703c0,2.27733 1.901935,4.130498 4.239195,4.130395c2.337259,0 4.239195,-1.853065 4.239195,-4.130395c0,-0.329984 0,-1.333081 -1.797689,-5.004703c-0.859265,-1.755806 -1.704827,-3.2566 -1.740559,-3.319762z" id="svg_3" stroke-width="0"/>
   <path stroke="null" d="m10.534868,18.584331c-0.653197,0 -1.292165,0.257886 -1.753525,0.707211c-0.461254,0.44953 -0.726032,1.072114 -0.726032,1.708665c0,0.635525 0.264778,1.258006 0.726032,1.708562c0.461359,0.449222 1.100327,0.707314 1.753525,0.707314c0.652775,0 1.291743,-0.258092 1.753103,-0.707314c0.461359,-0.450557 0.726243,-1.073038 0.726243,-1.708562c0,-0.636449 -0.264884,-1.259136 -0.726243,-1.708665c-0.461359,-0.449427 -1.100327,-0.707211 -1.753103,-0.707211z" id="svg_4" stroke-width="0"/>
   <path stroke="null" d="m20.498947,13.706157c1.369005,0 2.479346,-1.082281 2.478502,-2.415773c0,-1.334827 -1.109392,-2.415773 -2.479241,-2.415773c-1.368795,0 -2.479452,1.081973 -2.479452,2.415773c-0.000105,1.334622 1.110552,2.415773 2.480189,2.415773l0.000001,0z" id="svg_5" stroke-width="0"/>
   <path stroke="null" d="m15.207279,12.425968c-0.968359,-0.943119 -2.538584,-0.943119 -3.506943,0c-0.968043,0.943633 -0.968043,2.473595 0,3.4162c0.483705,0.47233 1.119405,0.708238 1.753525,0.708238c0.634435,0 1.268765,-0.236011 1.753525,-0.707314l-0.001054,-0.001027c0.968465,-0.942503 0.968465,-2.472465 0.000948,-3.416098l-0.000001,0.000001z" id="svg_6" stroke-width="0"/>
   <path stroke="null" d="m29.296503,12.423401c-0.968992,-0.943736 -2.538057,-0.942708 -3.506732,0.001027c-0.967305,0.943633 -0.967305,2.472978 0.001265,3.416611c0.484654,0.471405 1.118773,0.706697 1.752997,0.706697c0.634752,0 1.268765,-0.236422 1.75363,-0.707725c0.967411,-0.944146 0.967411,-2.474006 -0.001159,-3.416611l0,0.000001z" id="svg_7" stroke-width="0"/>
   <path stroke="null" d="m32.217498,19.291439c-0.461359,-0.449325 -1.100222,-0.707211 -1.752259,-0.707211c-0.652881,0 -1.291848,0.257886 -1.753314,0.707211c-0.462414,0.450557 -0.726243,1.073038 -0.726243,1.708665c0,0.635525 0.26383,1.258006 0.726243,1.708562c0.461465,0.449222 1.100327,0.707314 1.753314,0.707314c0.652038,0 1.2909,-0.258092 1.752259,-0.707314c0.462414,-0.450557 0.727086,-1.073038 0.727086,-1.708562c0,-0.635525 -0.264673,-1.258108 -0.727086,-1.708665z" id="svg_8" stroke-width="0"/>
  </g>
 </g>
</svg>