<?xml version="1.0" encoding="iso-8859-1"?>
<!-- Generator: Adobe Illustrator 18.0.0, SVG Export Plug-In . SVG Version: 6.00 Build 0)  -->
<!DOCTYPE svg PUBLIC "-//W3C//DTD SVG 1.1//EN" "http://www.w3.org/Graphics/SVG/1.1/DTD/svg11.dtd">
<svg version="1.1" id="Capa_1" xmlns="http://www.w3.org/2000/svg" xmlns:xlink="http://www.w3.org/1999/xlink" x="0px" y="0px"
	 viewBox="0 0 50 50" style="enable-background:new 0 0 50 50;" xml:space="preserve">
<g>
	<path d="M169.102,0C75.858,0,0,75.858,0,169.102s75.858,169.102,169.102,169.102s169.102-75.858,169.102-169.102
		S262.345,0,169.102,0z M169.102,308.203C92.4,308.203,30,245.803,30,169.102S92.4,30,169.102,30s139.102,62.4,139.102,139.102
		S245.803,308.203,169.102,308.203z"/>
	<path d="M167.738,62.895c0.267,0.021,0.532,0.033,0.8,0.024c5.269-0.032,9.497-4.32,9.475-9.577
		c-0.033-5.268-4.329-9.506-9.588-9.475c-5.257,0.033-9.497,4.32-9.464,9.589C158.986,58.444,162.847,62.518,167.738,62.895z"/>
	<path d="M60.999,205.607c-4.811,2.149-6.965,7.782-4.813,12.583c1.474,3.305,4.602,5.354,7.975,5.615
		c1.528,0.117,3.114-0.134,4.61-0.811c4.799-2.143,6.954-7.774,4.813-12.584C71.433,205.61,65.8,203.455,60.999,205.607z"/>
	<path d="M57.558,149.876c4.569,0.354,8.851-2.633,9.971-7.236v0.01c1.254-5.108-1.872-10.273-6.982-11.528
		c-5.11-1.245-10.264,1.883-11.517,6.993c-1.255,5.111,1.871,10.264,6.982,11.518C56.525,149.757,57.046,149.836,57.558,149.876z"/>
	<path d="M92.567,70.508c-4.13,3.256-4.832,9.25-1.57,13.381c1.715,2.166,4.19,3.389,6.747,3.586
		c2.308,0.179,4.679-0.469,6.633-2.019c4.132-3.262,4.833-9.247,1.569-13.379C102.692,67.947,96.698,67.245,92.567,70.508z"/>
	<path d="M289.141,136.4c-1.325-5.091-6.536-8.14-11.617-6.804c-5.099,1.326-8.148,6.527-6.814,11.627l0.002-0.01
		c1.053,4.039,4.539,6.791,8.48,7.096c1.025,0.078,2.083-0.009,3.145-0.282C287.428,146.701,290.469,141.49,289.141,136.4z"/>
	<path d="M278.044,204.316c-4.835-2.084-10.444,0.139-12.527,4.966c-2.083,4.836,0.14,10.434,4.966,12.527
		c0.997,0.432,2.021,0.671,3.047,0.751c3.941,0.306,7.817-1.89,9.482-5.716C285.095,212.008,282.871,206.4,278.044,204.316z"/>
	<path d="M244.653,69.424c-4.176-3.199-10.15-2.42-13.358,1.757c-3.198,4.166-2.418,10.15,1.749,13.358l0.008,0.001
		c1.515,1.168,3.282,1.802,5.059,1.938c3.105,0.24,6.262-1.045,8.301-3.695C249.61,78.605,248.829,72.632,244.653,69.424z"/>
	<path d="M226.618,103.218c-22.619,16.855-49.847,37.337-58.86,44.921c-4.786,0.234-9.505,2.156-13.16,5.811
		c-7.811,7.811-7.811,20.475,0,28.283c7.811,7.811,20.474,7.811,28.285,0c3.656-3.655,5.578-8.376,5.811-13.162
		c7.576-9.005,28.061-36.233,44.921-58.856c1.483-1.99,1.282-4.768-0.473-6.522C231.385,101.936,228.608,101.736,226.618,103.218z"
		/>
</g>

</svg>
