<svg width="40" height="40" xmlns="http://www.w3.org/2000/svg"><path fill="none" id="canvas_background" d="M-1-1h42v42H-1z"/><g stroke="null" id="svg_1"><path fill="#d5d5d5" stroke="null" id="svg_2" d="M31.971 39.476c-.3 0-.599-.097-.855-.286l-9.673-7.146-5.189 4.066a1.422 1.422 0 0 1-1.403.215c-.472-.185-.83-.61-.959-1.138l-2.605-10.753-9.308-3.876c-.586-.244-.975-.855-.98-1.538-.003-.683.378-1.3.96-1.553L37.355 2.13A1.421 1.421 0 0 1 38.04 2a1.463 1.463 0 0 1 1.056.564 1.732 1.732 0 0 1 .37 1.236 1.746 1.746 0 0 1-.024.188l-5.975 34.14c-.096.548-.439 1.007-.912 1.221a1.414 1.414 0 0 1-.584.127zm-9.679-10.813l8.617 6.365 4.649-26.564-16.79 17.595 3.484 2.574.04.03zm-7.173-1.416l1.154 4.762 2.485-1.949-3.254-2.404a1.588 1.588 0 0 1-.385-.409zm-8.406-8.27l6.392 2.662c.457.19.803.61.928 1.126l.81 3.346a1.72 1.72 0 0 1 .46-1.023L31.3 8.323 6.713 18.978z"/></g></svg>