<svg width="40" height="40" xmlns="http://www.w3.org/2000/svg"><path fill="none" id="canvas_background" d="M-1-1h42v42H-1z"/><g stroke="null" id="svg_1"><g stroke="null" id="svg_2" fill="#d5d5d5"><path id="svg_3" d="M20.08 0C8.99 0 .001 9.215.001 20.58c0 11.365 8.99 20.58 20.079 20.58 11.09 0 20.079-9.216 20.079-20.58C40.159 9.215 31.171 0 20.08 0zm0 37.197c-8.94 0-16.212-7.454-16.212-16.617S11.139 3.963 20.08 3.963c8.94 0 16.212 7.454 16.212 16.617 0 9.165-7.271 16.617-16.212 16.617z"/><path id="svg_4" d="M28.549 19.26h-5.725a3.068 3.068 0 0 0-1.455-1.492v-9.66c0-.73-.575-1.321-1.289-1.321-.713 0-1.289.592-1.289 1.32v9.66a3.112 3.112 0 0 0-1.75 2.813c0 1.721 1.36 3.116 3.039 3.116 1.217 0 2.258-.738 2.744-1.795h5.725c.713 0 1.289-.592 1.289-1.321s-.576-1.32-1.289-1.32z"/></g></g></svg>