<svg width="20" height="20" xmlns="http://www.w3.org/2000/svg"><path fill="none" id="canvas_background" d="M-1-1h22v22H-1z"/><g stroke="null" id="svg_1"><g stroke="null" id="svg_2"><path fill="#bcbcbc" stroke="null" id="svg_3" d="M2.468 10.69l-.469 2.81a.74.74 0 0 0 .274.72.613.613 0 0 0 .4.134.576.576 0 0 0 .32-.085l2.744-1.576c.595 2.748 3.453 4.836 6.87 4.836.24 0 .48-.012.72-.036l3.533 2.027a.63.63 0 0 0 .32.085.689.689 0 0 0 .4-.134.74.74 0 0 0 .275-.72l-.469-2.81c1.406-1.11 2.206-2.65 2.206-4.298 0-2.736-2.252-5.117-5.395-5.74-.298-3.016-3.304-5.41-6.962-5.41C3.382.493.25 3.131.25 6.379c.011 1.661.812 3.212 2.218 4.311zm15.764.953c0 1.282-.709 2.503-1.955 3.346a.768.768 0 0 0-.309.745l.298 1.783-2.47-1.417a.665.665 0 0 0-.4-.085 8.793 8.793 0 0 1-.788.049c-2.824 0-5.168-1.649-5.556-3.786h.183c3.452 0 6.321-2.125 6.882-4.897 2.412.537 4.115 2.283 4.115 4.262zM7.246 1.97c3.098 0 5.613 1.978 5.613 4.42s-2.515 4.421-5.613 4.421c-.251 0-.526-.012-.789-.048a.665.665 0 0 0-.4.085l-2.469 1.417.297-1.783a.746.746 0 0 0-.308-.745C2.33 8.895 1.622 7.674 1.622 6.392c.011-2.43 2.526-4.421 5.624-4.421z"/></g></g></svg>