<svg width="14" height="14" xmlns="http://www.w3.org/2000/svg"><path fill="none" id="canvas_background" d="M-1-1h16v16H-1z"/><g stroke="null" id="svg_1"><g stroke="null" id="refresh"><path fill="#a6a6a6" stroke="null" id="svg_2" d="M11.725 2.294A6.402 6.402 0 0 0 7 .25C3.287.25.25 3.316.25 7.062S3.287 13.875 7 13.875c3.122 0 5.737-2.214 6.497-5.11h-1.772c-.675 1.96-2.531 3.407-4.725 3.407-2.784 0-5.063-2.3-5.063-5.11 0-2.81 2.279-5.109 5.063-5.109 1.434 0 2.615.596 3.544 1.533l-2.7 2.725h5.906V.25l-2.025 2.044z"/></g></g></svg>