<svg width="16" height="16" xmlns="http://www.w3.org/2000/svg"><path fill="none" id="canvas_background" d="M-1-1h18v18H-1z"/><g stroke="null" id="svg_1"><path fill="#a6a6a6" stroke="null" id="svg_2" d="M14.805.68c-.667-.412-1.411.383-1.847.855-1.001 1.118-1.848 2.414-2.797 3.592-1.052 1.295-2.027 2.59-3.105 3.857-.615.707-1.282 1.472-1.693 2.355-.924-1.03-1.72-2.15-2.745-3.062C1.874 7.63.642 7.158.668 8.72c.051 2.032 1.616 4.21 2.77 5.594.488.59 1.13 1.207 1.874 1.237.898.059 1.821-1.178 2.36-1.855.95-1.178 1.72-2.503 2.592-3.71 1.129-1.59 2.283-3.15 3.386-4.77.693-1.001 2.874-3.474 1.155-4.534zM1.797 8.602c-.026 0-.052 0-.103.03a1.15 1.15 0 0 1-.282-.118h0c.077-.06.205-.03.385.088z"/></g></svg>