<svg xmlns="http://www.w3.org/2000/svg" xmlns:xlink="http://www.w3.org/1999/xlink"><symbol id="icon-arrow-down" viewBox="0 0 451.847 451.847">
<g>
	<path d="M225.923,354.706c-8.098,0-16.195-3.092-22.369-9.263L9.27,151.157c-12.359-12.359-12.359-32.397,0-44.751
		c12.354-12.354,32.388-12.354,44.748,0l171.905,171.915l171.906-171.909c12.359-12.354,32.391-12.354,44.744,0
		c12.365,12.354,12.365,32.392,0,44.751L248.292,345.449C242.115,351.621,234.018,354.706,225.923,354.706z"/>
</g>
<g>
</g>
<g>
</g>
<g>
</g>
<g>
</g>
<g>
</g>
<g>
</g>
<g>
</g>
<g>
</g>
<g>
</g>
<g>
</g>
<g>
</g>
<g>
</g>
<g>
</g>
<g>
</g>
<g>
</g>
</symbol><symbol id="icon-arrow-right">

 <g>
  <title>background</title>
  <rect id="canvas_background"/>
 </g>
 <g>
  <title>Layer 1</title>
  <g stroke="null" id="svg_1">
   <path stroke="null" id="svg_2" d="m16.398479,10.964357l-9.984237,8.318629c-0.635118,0.529439 -1.664853,0.529439 -2.299663,0c-0.634861,-0.528968 -0.634861,-1.386902 0,-1.915827l8.834509,-7.360716l-8.834252,-7.360459c-0.634861,-0.529182 -0.634861,-1.38703 0,-1.915998c0.634861,-0.529182 1.664545,-0.529182 2.299663,0l9.984237,8.318758c0.317431,0.264612 0.475966,0.611049 0.475966,0.957656c0,0.346779 -0.158844,0.693472 -0.476223,0.957956z"/>
  </g>
 </g>
</symbol><symbol id="icon-check-mark" viewBox="0 0 352.62 352.62">
<g>
	<path d="M337.222,22.952c-15.912-8.568-33.66,7.956-44.064,17.748c-23.867,23.256-44.063,50.184-66.708,74.664
		c-25.092,26.928-48.348,53.856-74.052,80.173c-14.688,14.688-30.6,30.6-40.392,48.96c-22.032-21.421-41.004-44.677-65.484-63.648
		c-17.748-13.464-47.124-23.256-46.512,9.18c1.224,42.229,38.556,87.517,66.096,116.28c11.628,12.24,26.928,25.092,44.676,25.704
		c21.42,1.224,43.452-24.48,56.304-38.556c22.645-24.48,41.005-52.021,61.812-77.112c26.928-33.048,54.468-65.485,80.784-99.145
		C326.206,96.392,378.226,44.983,337.222,22.952z M26.937,187.581c-0.612,0-1.224,0-2.448,0.611
		c-2.448-0.611-4.284-1.224-6.732-2.448l0,0C19.593,184.52,22.653,185.132,26.937,187.581z"/>
</g>
<g>
</g>
<g>
</g>
<g>
</g>
<g>
</g>
<g>
</g>
<g>
</g>
<g>
</g>
<g>
</g>
<g>
</g>
<g>
</g>
<g>
</g>
<g>
</g>
<g>
</g>
<g>
</g>
<g>
</g>
</symbol><symbol id="icon-circular-rotating-arrow">

 <g>
  <title>background</title>
  <rect fill="none" id="canvas_background" y="0" x="0"/>
 </g>
 <g>
  <title>Layer 1</title>
  <g stroke="null" id="svg_1">
   <path stroke="null" id="svg_2" d="m12.674901,2.473774c-0.941763,-1.035358 -2.130269,-1.718963 -3.436891,-1.976923c-1.275805,-0.251887 -2.575601,-0.083703 -3.758668,0.486181l0.635792,1.595121c1.864548,-0.898157 3.999802,-0.455851 5.439582,1.127063c1.912673,2.102695 1.912673,5.524056 0,7.626751c-1.912673,2.102727 -5.024898,2.102727 -6.937599,0c-0.968134,-1.064348 -1.470003,-2.480947 -1.438761,-3.929028l1.901059,0.590779l-0.642788,-2.789508l-0.642817,-2.789571l-1.876048,2.006817l-1.876105,2.006755l1.577187,0.490105c-0.055235,0.722188 -0.010679,1.453156 0.135141,2.167746c0.268666,1.316703 0.871374,2.519124 1.743004,3.47738c1.225754,1.3475 2.855484,2.089617 4.588914,2.089617c0.000113,0 -0.000057,0 0.000057,0c1.733316,0 3.363245,-0.74221 4.588999,-2.089617c1.225725,-1.347531 1.900748,-3.139205 1.900748,-5.044912c-0.000028,-1.905582 -0.675079,-3.697256 -1.900805,-5.044756z"/>
  </g>
 </g>
</symbol><symbol id="icon-dialogue-balloon" viewBox="0 0 50 50">
<g>
	<g>
		<path d="M54.967,254.575L43.35,319.742c-1.133,6.517,1.417,13.033,6.8,16.717c2.833,2.267,6.517,3.117,9.917,3.117
			c2.833,0,5.667-0.567,7.933-1.983l68-36.55c14.733,63.75,85.567,112.2,170.283,112.2c5.95,0,11.9-0.283,17.85-0.85l87.55,47.033
			c2.55,1.417,5.383,1.983,7.933,1.983c3.4,0,7.083-1.133,9.917-3.117c5.383-3.683,7.933-10.2,6.8-16.717l-11.617-65.167
			c34.85-25.783,54.683-61.483,54.683-99.733c0-63.467-55.817-118.717-133.733-133.167C338.3,73.525,263.783,17.992,173.117,17.992
			C77.633,17.992,0,79.192,0,154.558C0.283,193.092,20.117,229.075,54.967,254.575z M445.683,276.675
			c0,29.75-17.567,58.083-48.45,77.633c-5.667,3.683-8.783,10.483-7.65,17.283l7.367,41.367l-61.2-32.867
			c-3.117-1.7-6.517-2.267-9.917-1.983c-6.517,0.567-13.317,1.133-19.55,1.133c-69.983,0-128.067-38.25-137.7-87.833
			c1.417,0,3.117,0,4.533,0c85.567,0,156.683-49.3,170.567-113.617C403.467,190.258,445.683,230.775,445.683,276.675z M173.4,52.275
			c76.783,0,139.117,45.9,139.117,102.567S250.183,257.408,173.4,257.408c-6.233,0-13.033-0.283-19.55-1.133
			c-3.4-0.283-6.8,0.283-9.917,1.983l-61.2,32.867l7.367-41.367c1.133-6.8-1.7-13.6-7.65-17.283
			C51.567,212.925,34,184.592,34,154.842C34.283,98.458,96.617,52.275,173.4,52.275z"/>
	</g>
</g>

</symbol><symbol id="icon-discount" viewBox="0 0 50 50">
<g>
	<g>
		<path d="M477.958,262.633c-2.06-4.215-2.06-9.049,0-13.263l19.096-39.065c10.632-21.751,2.208-47.676-19.178-59.023l-38.41-20.38
			c-4.144-2.198-6.985-6.11-7.796-10.729l-7.512-42.829c-4.183-23.846-26.241-39.87-50.208-36.479l-43.053,6.09
			c-4.647,0.656-9.242-0.838-12.613-4.099l-31.251-30.232c-17.401-16.834-44.661-16.835-62.061,0L193.72,42.859
			c-3.372,3.262-7.967,4.753-12.613,4.099l-43.053-6.09c-23.975-3.393-46.025,12.633-50.208,36.479l-7.512,42.827
			c-0.811,4.62-3.652,8.531-7.795,10.73l-38.41,20.38c-21.386,11.346-29.81,37.273-19.178,59.024l19.095,39.064
			c2.06,4.215,2.06,9.049,0,13.263l-19.096,39.064c-10.632,21.751-2.208,47.676,19.178,59.023l38.41,20.38
			c4.144,2.198,6.985,6.11,7.796,10.729l7.512,42.829c3.808,21.708,22.422,36.932,43.815,36.93c2.107,0,4.245-0.148,6.394-0.452
			l43.053-6.09c4.643-0.659,9.241,0.838,12.613,4.099l31.251,30.232c8.702,8.418,19.864,12.626,31.03,12.625
			c11.163-0.001,22.332-4.209,31.03-12.625l31.252-30.232c3.372-3.261,7.968-4.751,12.613-4.099l43.053,6.09
			c23.978,3.392,46.025-12.633,50.208-36.479l7.513-42.827c0.811-4.62,3.652-8.531,7.795-10.73l38.41-20.38
			c21.386-11.346,29.81-37.273,19.178-59.024L477.958,262.633z M196.941,123.116c29.852,0,54.139,24.287,54.139,54.139
			s-24.287,54.139-54.139,54.139s-54.139-24.287-54.139-54.139S167.089,123.116,196.941,123.116z M168.997,363.886
			c-2.883,2.883-6.662,4.325-10.44,4.325s-7.558-1.441-10.44-4.325c-5.766-5.766-5.766-15.115,0-20.881l194.889-194.889
			c5.765-5.766,15.115-5.766,20.881,0c5.766,5.766,5.766,15.115,0,20.881L168.997,363.886z M315.061,388.888
			c-29.852,0-54.139-24.287-54.139-54.139s24.287-54.139,54.139-54.139c29.852,0,54.139,24.287,54.139,54.139
			S344.913,388.888,315.061,388.888z"/>
	</g>
</g>
<g>
	<g>
		<path d="M315.061,310.141c-13.569,0-24.609,11.039-24.609,24.608s11.039,24.608,24.609,24.608
			c13.569,0,24.608-11.039,24.608-24.608S328.63,310.141,315.061,310.141z"/>
	</g>
</g>
<g>
	<g>
		<path d="M196.941,152.646c-13.569,0-24.608,11.039-24.608,24.608c0,13.569,11.039,24.609,24.608,24.609
			c13.569,0,24.609-11.039,24.609-24.609C221.549,163.686,210.51,152.646,196.941,152.646z"/>
	</g>
</g>

</symbol><symbol id="icon-dots">

 <g>
  <title>background</title>
  <rect fill="#4e5053" id="canvas_background" height="29" width="29" y="-1" x="-1"/>
 </g>
 <g>
  <title>Layer 1</title>
  <g stroke="null" id="svg_1">
   <g stroke="null" id="svg_2">
    <circle fill="#4e5053" stroke="null" id="svg_3" r="1.68245" cy="14.50004" cx="3.991626"/>
    <circle fill="#4e5053" stroke="null" id="svg_4" r="1.68245" cy="14.50004" cx="13.999967"/>
    <circle fill="#4e5053" stroke="null" id="svg_5" r="1.68245" cy="14.50004" cx="24.008308"/>
   </g>
  </g>
  <g id="svg_6"/>
  <g id="svg_7"/>
  <g id="svg_8"/>
  <g id="svg_9"/>
  <g id="svg_10"/>
  <g id="svg_11"/>
  <g id="svg_12"/>
  <g id="svg_13"/>
  <g id="svg_14"/>
  <g id="svg_15"/>
  <g id="svg_16"/>
  <g id="svg_17"/>
  <g id="svg_18"/>
  <g id="svg_19"/>
  <g id="svg_20"/>
 </g>
</symbol><symbol id="icon-down-chevron" viewBox="0 0 50 50">
<path d="M227.5,0C101.855,0,0,101.855,0,227.5S101.855,455,227.5,455S455,353.145,455,227.5S353.145,0,227.5,0z M227.5,327.148
	L99.411,199.476l21.178-21.248L227.5,284.791l106.911-106.563l21.178,21.248L227.5,327.148z"/>

</symbol><symbol id="icon-limit">
 <g>
  <title>background</title>
  <rect x="-1" y="-1" width="44" height="44" id="canvas_background" fill="none"/>
 </g>

 <g>
  <title>Layer 1</title>
  <g stroke="null" id="svg_1">
   <path stroke="null" d="m20.5,2c-10.752406,0 -19.5,8.523298 -19.5,19.000002s8.747595,19.000002 19.5,19.000002s19.5,-8.523298 19.5,-19.000002s-8.747595,-19.000002 -19.5,-19.000002zm0,33.730548c-8.335986,0 -15.118192,-6.608303 -15.118192,-14.730547c0,-8.122244 6.782206,-14.730547 15.118192,-14.730547s15.118192,6.608303 15.118192,14.730547c0,8.122244 -6.782206,14.730547 -15.118192,14.730547z" id="svg_2" stroke-width="0"/>
   <path stroke="null" d="m21.200947,18.395666c-0.1404,-0.249362 -0.409395,-0.403827 -0.700946,-0.403827c-0.291446,0 -0.560441,0.154567 -0.700946,0.403827c-0.035943,0.062957 -0.881189,1.564059 -1.740665,3.319762c-1.797584,3.671622 -1.797584,4.674822 -1.797584,5.004703c0,2.27733 1.901935,4.130498 4.239195,4.130395c2.337259,0 4.239195,-1.853065 4.239195,-4.130395c0,-0.329984 0,-1.333081 -1.797689,-5.004703c-0.859265,-1.755806 -1.704827,-3.2566 -1.740559,-3.319762z" id="svg_3" stroke-width="0"/>
   <path stroke="null" d="m10.534868,18.584331c-0.653197,0 -1.292165,0.257886 -1.753525,0.707211c-0.461254,0.44953 -0.726032,1.072114 -0.726032,1.708665c0,0.635525 0.264778,1.258006 0.726032,1.708562c0.461359,0.449222 1.100327,0.707314 1.753525,0.707314c0.652775,0 1.291743,-0.258092 1.753103,-0.707314c0.461359,-0.450557 0.726243,-1.073038 0.726243,-1.708562c0,-0.636449 -0.264884,-1.259136 -0.726243,-1.708665c-0.461359,-0.449427 -1.100327,-0.707211 -1.753103,-0.707211z" id="svg_4" stroke-width="0"/>
   <path stroke="null" d="m20.498947,13.706157c1.369005,0 2.479346,-1.082281 2.478502,-2.415773c0,-1.334827 -1.109392,-2.415773 -2.479241,-2.415773c-1.368795,0 -2.479452,1.081973 -2.479452,2.415773c-0.000105,1.334622 1.110552,2.415773 2.480189,2.415773l0.000001,0z" id="svg_5" stroke-width="0"/>
   <path stroke="null" d="m15.207279,12.425968c-0.968359,-0.943119 -2.538584,-0.943119 -3.506943,0c-0.968043,0.943633 -0.968043,2.473595 0,3.4162c0.483705,0.47233 1.119405,0.708238 1.753525,0.708238c0.634435,0 1.268765,-0.236011 1.753525,-0.707314l-0.001054,-0.001027c0.968465,-0.942503 0.968465,-2.472465 0.000948,-3.416098l-0.000001,0.000001z" id="svg_6" stroke-width="0"/>
   <path stroke="null" d="m29.296503,12.423401c-0.968992,-0.943736 -2.538057,-0.942708 -3.506732,0.001027c-0.967305,0.943633 -0.967305,2.472978 0.001265,3.416611c0.484654,0.471405 1.118773,0.706697 1.752997,0.706697c0.634752,0 1.268765,-0.236422 1.75363,-0.707725c0.967411,-0.944146 0.967411,-2.474006 -0.001159,-3.416611l0,0.000001z" id="svg_7" stroke-width="0"/>
   <path stroke="null" d="m32.217498,19.291439c-0.461359,-0.449325 -1.100222,-0.707211 -1.752259,-0.707211c-0.652881,0 -1.291848,0.257886 -1.753314,0.707211c-0.462414,0.450557 -0.726243,1.073038 -0.726243,1.708665c0,0.635525 0.26383,1.258006 0.726243,1.708562c0.461465,0.449222 1.100327,0.707314 1.753314,0.707314c0.652038,0 1.2909,-0.258092 1.752259,-0.707314c0.462414,-0.450557 0.727086,-1.073038 0.727086,-1.708562c0,-0.635525 -0.264673,-1.258108 -0.727086,-1.708665z" id="svg_8" stroke-width="0"/>
  </g>
 </g>
</symbol><symbol id="icon-loading" viewBox="0 0 34.652 34.652">
<g>
	<g>
		<path d="M15.529,32.855C6.966,32.855,0,25.889,0,17.326C0,8.763,6.966,1.797,15.529,1.797
			c8.563,0,15.529,6.967,15.529,15.529c0,0.49-0.397,0.888-0.888,0.888c-0.49,0-0.888-0.397-0.888-0.888
			c0-7.584-6.17-13.755-13.754-13.755c-7.585,0-13.755,6.171-13.755,13.755c0,7.584,6.17,13.754,13.755,13.754
			c4.852,0,9.397-2.601,11.862-6.787c0.249-0.423,0.793-0.562,1.215-0.314c0.422,0.248,0.562,0.792,0.315,1.215
			C26.139,29.919,21.007,32.855,15.529,32.855z"/>
	</g>
	<g>
		<path d="M30.17,18.214c-0.153,0-0.309-0.04-0.45-0.123l-5.561-3.284c-0.422-0.249-0.562-0.793-0.313-1.215
			c0.25-0.422,0.794-0.562,1.216-0.312l4.852,2.865l3.123-4.473c0.281-0.402,0.834-0.5,1.235-0.22c0.402,0.28,0.5,0.833,0.22,1.235
			l-3.594,5.146C30.726,18.08,30.451,18.214,30.17,18.214z"/>
	</g>
</g>
</symbol><symbol id="icon-logout">

 <g>
  <title>background</title>
  <rect fill="none" id="canvas_background" height="44" width="44" y="-1" x="-1"/>
 </g>
 <g>
  <title>Layer 1</title>
  <g stroke="null" id="svg_1">
   <g stroke="null" id="remove-circle-outline">
    <path stroke="null" id="svg_2" d="m10.827419,18.955794l0,4.064252l20.321517,0l0,-4.064252l-20.321517,0zm10.160759,-18.289135c-11.176834,0 -20.321517,9.144568 -20.321517,20.321261s9.144683,20.321261 20.321517,20.321261s20.321517,-9.144568 20.321517,-20.321261s-9.144683,-20.321261 -20.321517,-20.321261zm0,36.578271c-8.941468,0 -16.257214,-7.315654 -16.257214,-16.257009s7.315746,-16.257009 16.257214,-16.257009s16.257214,7.315654 16.257214,16.257009s-7.315746,16.257009 -16.257214,16.257009z"/>
   </g>
  </g>
 </g>
</symbol><symbol id="icon-magnifying-glass">

 <g>
  <title>background</title>
  <rect fill="none" id="canvas_background" height="17" width="17" y="-1" x="-1"/>
 </g>
 <g>
  <title>Layer 1</title>
  <g stroke="null" id="svg_1">
   <path stroke="null" id="svg_2" d="m9.842438,1.962763c-2.172085,-2.172246 -5.707314,-2.172246 -7.879399,0c-2.171614,2.172717 -2.171614,5.707738 0,7.880456c1.9343,1.933973 4.946873,2.141167 7.117545,0.631002c0.045674,0.216142 0.150205,0.422394 0.318302,0.590504l3.163249,3.163484c0.460974,0.460066 1.205877,0.460066 1.664496,0c0.460503,-0.460537 0.460503,-1.205495 0,-1.66462l-3.163249,-3.164426c-0.167156,-0.166697 -0.373864,-0.271707 -0.58999,-0.317384c1.510995,-2.171304 1.303816,-5.18363 -0.630955,-7.119016zm-0.998698,6.881684c-1.621648,1.621768 -4.260827,1.621768 -5.882004,0c-1.620706,-1.621768 -1.620706,-4.260673 0,-5.882441c1.621177,-1.621297 4.260357,-1.621297 5.882004,0c1.621648,1.621768 1.621648,4.260673 0,5.882441z"/>
  </g>
 </g>
</symbol><symbol id="icon-menu">
 <g>
  <title>background</title>
  <rect x="-1" y="-1" width="44" height="44" id="canvas_background" fill="none"/>
 </g>

 <g>
  <title>Layer 1</title>
  <g stroke="null" id="svg_1">
   <g stroke="null" id="svg_2">
    <g stroke="null" id="svg_3">
     <path stroke="null" d="m6.242363,11.802987l28.848279,0c2.33997,0 4.242363,-1.750326 4.242363,-3.901456s-1.902394,-3.901529 -4.242363,-3.901529l-28.848279,0c-2.33989,0 -4.242363,1.750326 -4.242363,3.901456s1.902473,3.901529 4.242363,3.901529z" id="svg_4"/>
     <path stroke="null" d="m35.090642,17.265011l-28.848279,0c-2.33989,0 -4.242363,1.750326 -4.242363,3.901529s1.902473,3.901456 4.242363,3.901456l28.848279,0c2.33997,0 4.242363,-1.750326 4.242363,-3.901456s-1.902394,-3.901529 -4.242363,-3.901529z" id="svg_5"/>
     <path stroke="null" d="m35.090642,30.530094l-28.848279,0c-2.33989,0 -4.242363,1.750326 -4.242363,3.901456s1.902473,3.901456 4.242363,3.901456l28.848279,0c2.33997,0 4.242363,-1.750326 4.242363,-3.901456s-1.902394,-3.901456 -4.242363,-3.901456z" id="svg_6"/>
    </g>
   </g>
  </g>
 </g>
</symbol><symbol id="icon-physics">

 <g>
  <title>background</title>
  <rect fill="none" id="canvas_background" height="44" width="44" y="-1" x="-1"/>
 </g>
 <g>
  <title>Layer 1</title>
  <g stroke="null" id="svg_1">
   <g stroke="null" id="svg_2">
    <path stroke="null" id="svg_3" d="m35.145771,20.996704c0.405885,-0.410761 0.788123,-0.822927 1.138725,-1.235446c2.602981,-3.063236 3.341911,-5.820247 2.080123,-7.762906c-0.081304,-0.125133 -0.172177,-0.245697 -0.269457,-0.362746c0.458084,-0.552625 0.732286,-1.232704 0.732286,-1.970147c0,-1.837562 -1.682146,-3.332694 -3.749378,-3.332694c-2.041765,0 -3.704771,1.459209 -3.745581,3.265558c-1.048089,0.03761 -2.169731,0.165274 -3.341594,0.374556c-1.631055,-4.266344 -4.20849,-6.972879 -7.160649,-6.972879c-2.952318,0 -5.529911,2.707028 -7.160966,6.974004c-4.971146,-0.876918 -8.897209,-0.247595 -10.373407,2.024348c-1.261788,1.94266 -0.522858,4.699671 2.080123,7.762906c0.350681,0.412518 0.732919,0.824685 1.138804,1.235446c-0.405885,0.41069 -0.788123,0.822927 -1.138804,1.235446c-2.602981,3.063236 -3.341911,5.820247 -2.080123,7.762555c0.275388,0.424329 0.642599,0.798885 1.0923,1.117764c-0.033613,0.178983 -0.055362,0.361551 -0.055362,0.548899c0,1.837562 1.682146,3.332694 3.749378,3.332694c1.826642,0 3.350373,-1.167888 3.680966,-2.707379c0.617132,-0.064676 1.25206,-0.153183 1.905099,-0.270021c1.631055,4.268593 4.209044,6.976746 7.161994,6.976746c2.952634,0 5.530464,-2.70759 7.161598,-6.975269c1.426372,0.251602 2.769464,0.383063 3.990362,0.383063c3.03283,0 5.330132,-0.786301 6.382412,-2.406145c1.261788,-1.94266 0.522858,-4.699671 -2.080123,-7.762906c-0.350602,-0.412518 -0.73284,-0.824755 -1.138725,-1.235446zm-0.067779,-13.330918c1.240513,0 2.249611,0.896953 2.249611,1.999603s-1.009098,1.999603 -2.249611,1.999603c-0.995099,0 -1.839929,-0.577793 -2.135802,-1.375342c0.000554,-0.00942 0.003559,-0.018137 0.003717,-0.027768c0.001582,-0.118385 -0.034641,-0.228403 -0.094274,-0.325347c-0.013762,-0.088929 -0.023252,-0.178983 -0.023252,-0.271216c0,-1.102509 1.009098,-1.999532 2.249611,-1.999532zm-7.188647,7.816475c-0.824188,-0.48809 -1.678746,-0.960504 -2.559798,-1.412671c-0.892204,-0.457932 -1.783064,-0.880784 -2.667597,-1.270033c1.46995,-0.524716 2.915067,-0.949467 4.29794,-1.261597c0.384689,1.212387 0.699227,2.537746 0.929455,3.944301zm-7.059099,-11.149169c2.246052,0 4.299284,2.330854 5.687298,5.940037c-1.825298,0.416385 -3.744158,1.01358 -5.680892,1.767825c-1.969793,-0.769992 -3.886518,-1.360017 -5.693151,-1.768949c1.387935,-3.60855 3.44093,-5.938912 5.686745,-5.938912zm-6.134231,7.219842c1.367451,0.309529 2.810036,0.731257 4.28837,1.254637c-0.888487,0.390163 -1.775392,0.811469 -2.65344,1.262019c-0.880974,0.452167 -1.735452,0.92451 -2.559719,1.412671c0.229358,-1.40079 0.542235,-2.720947 0.924789,-3.929327zm-10.101024,1.111999c0.771831,-1.188556 2.570396,-1.756506 4.987043,-1.756506c1.097441,0 2.325457,0.121407 3.639206,0.350655c-0.503956,1.593482 -0.885165,3.364118 -1.119665,5.262911c-1.70358,1.112843 -3.242812,2.289659 -4.563758,3.492274c-0.342772,-0.351639 -0.665298,-0.704121 -0.964808,-1.056533c-2.184916,-2.570857 -2.905813,-4.864383 -1.978019,-6.292801zm7.332273,11.015037c-1.242015,-0.868833 -2.376153,-1.76916 -3.373942,-2.683266c0.997788,-0.914176 2.131926,-1.814433 3.373942,-2.683196c-0.062718,0.873684 -0.095619,1.769301 -0.095619,2.683196s0.032901,1.809512 0.095619,2.683266zm-3.844996,9.981071c-1.240513,0 -2.249611,-0.896953 -2.249611,-1.999603s1.009098,-1.999603 2.249611,-1.999603s2.249611,0.896953 2.249611,1.999603s-1.009098,1.999603 -2.249611,1.999603zm3.66064,-2.713495c-0.36903,-1.495343 -1.869192,-2.618802 -3.66064,-2.618802c-1.28765,0 -2.425505,0.580464 -3.100847,1.462162c-0.15019,-0.1432 -0.279501,-0.297578 -0.386429,-0.46229c-0.927794,-1.428488 -0.206897,-3.722014 1.97794,-6.292801c0.29951,-0.352412 0.622036,-0.704894 0.964808,-1.056533c1.320867,1.202545 2.860179,2.379502 4.563758,3.492274c0.234578,1.899144 0.615946,3.670133 1.12006,5.263825c-0.504272,0.086961 -0.998105,0.158526 -1.47865,0.212164zm2.028399,-4.436398c0.824188,0.48809 1.678746,0.960504 2.559719,1.412671c0.889357,0.456385 1.776579,0.874668 2.658185,1.262933c-1.466233,0.520077 -2.909609,0.941804 -4.293273,1.253513c-0.382554,-1.20824 -0.695351,-2.528326 -0.924631,-3.929116zm7.058941,11.149169c-2.247238,0 -4.301499,-2.333455 -5.689434,-5.946013c1.827433,-0.416947 3.747796,-1.012174 5.682157,-1.764029c1.969714,0.769851 3.887388,1.362618 5.693942,1.771621c-1.388014,3.608269 -3.440851,5.93842 -5.686665,5.93842zm6.134705,-7.220826c-1.369665,-0.309951 -2.812883,-0.728867 -4.293669,-1.253442c0.891492,-0.390725 1.780296,-0.811679 2.658264,-1.26223c0.881053,-0.452167 1.735532,-0.924581 2.559798,-1.412671c-0.229279,1.400439 -0.541998,2.720314 -0.924394,3.928343zm1.163796,-5.694199c-1.118953,0.706511 -2.305289,1.385535 -3.549124,2.023786c-1.237349,0.634946 -2.494629,1.208451 -3.748112,1.717279c-1.243281,-0.503978 -2.500244,-1.075655 -3.750722,-1.717279c-1.243755,-0.63825 -2.430171,-1.317274 -3.549124,-2.023786c-0.130734,-1.209364 -0.200333,-2.464705 -0.200333,-3.748587s0.069598,-2.539222 0.200333,-3.748587c1.118953,-0.706441 2.305369,-1.385606 3.549124,-2.023786c1.238298,-0.635509 2.492414,-1.2107 3.739966,-1.71981c1.245891,0.504822 2.505701,1.076709 3.758868,1.71981c1.243834,0.63825 2.430171,1.317415 3.549124,2.023786c0.130734,1.209364 0.200254,2.464705 0.200254,3.748587s-0.069519,2.539222 -0.200254,3.748587zm3.479209,-13.822172c0.559793,1.215621 1.903438,2.075104 3.470035,2.075104c0.690527,0 1.335973,-0.169703 1.892286,-0.460463c0.031557,0.042461 0.066751,0.083235 0.095223,0.127172c0.927794,1.428418 0.206897,3.721943 -1.97794,6.292801c-0.299431,0.352412 -0.621878,0.704894 -0.964808,1.056533c-1.320867,-1.202616 -2.8601,-2.379502 -4.563679,-3.492274c-0.235211,-1.904628 -0.618081,-3.680467 -1.124331,-5.277885c1.118636,-0.192199 2.183334,-0.301234 3.173213,-0.320988zm-1.87457,7.390389c1.242015,0.868763 2.376153,1.76902 3.373942,2.683196c-0.997788,0.914106 -2.131926,1.814433 -3.373942,2.683266c0.062718,-0.873754 0.095461,-1.769371 0.095461,-2.683266s-0.032743,-1.809512 -0.095461,-2.683196zm7.332114,11.014967c-1.122749,1.728527 -4.419183,2.14203 -8.626566,1.407188c0.504114,-1.593833 0.885561,-3.364962 1.120139,-5.264247c1.7035,-1.112773 3.242733,-2.289729 4.563679,-3.492274c0.34293,0.351639 0.665377,0.704121 0.964808,1.056533c2.184837,2.570857 2.905734,4.864383 1.97794,6.292801z"/>
   </g>
  </g>
 </g>
</symbol><symbol id="icon-race-car-speedometer" viewBox="0 0 50 50">
<g>
	<path d="M162.896,44.292c-0.108-0.245-0.193-0.495-0.33-0.732c-0.219-0.38-0.479-0.719-0.751-1.044
		c-7.404-12.351-17.753-22.698-30.105-30.1c-0.322-0.268-0.657-0.526-1.032-0.743c-0.238-0.138-0.489-0.223-0.734-0.331
		C117.283,4.157,102.689,0,87.12,0C71.549,0,56.953,4.158,44.29,11.344c-0.244,0.108-0.493,0.192-0.73,0.328
		c-0.375,0.217-0.709,0.475-1.032,0.743c-12.355,7.404-22.706,17.754-30.11,30.109c-0.269,0.323-0.528,0.659-0.745,1.035
		c-0.137,0.237-0.222,0.487-0.33,0.732C4.157,56.954,0,71.55,0,87.12c0,48.037,39.082,87.12,87.12,87.12s87.12-39.082,87.12-87.12
		C174.239,71.55,170.082,56.954,162.896,44.292z M87.12,159.305c-37.28,0-68.047-28.412-71.797-64.717h7.835
		c4.125,0,7.467-3.345,7.467-7.467s-3.342-7.467-7.467-7.467h-7.835c0.8-7.746,2.875-15.107,5.936-21.935l6.734,3.889
		c1.177,0.681,2.46,1.001,3.726,1.001c2.582,0,5.09-1.337,6.473-3.734c2.064-3.573,0.839-8.138-2.732-10.2l-6.697-3.867
		c4.476-6.155,9.886-11.566,16.041-16.042l3.865,6.695c1.383,2.397,3.894,3.734,6.476,3.734c1.266,0,2.55-0.321,3.726-1.001
		c3.571-2.061,4.796-6.626,2.735-10.2l-3.888-6.735c6.828-3.061,14.188-5.136,21.934-5.935v7.833c0,4.123,3.342,7.467,7.467,7.467
		s7.467-3.345,7.467-7.467v-7.833c7.746,0.8,15.106,2.874,21.934,5.935l-3.888,6.735c-2.061,3.573-0.836,8.138,2.735,10.2
		c1.177,0.681,2.46,1.001,3.726,1.001c2.581,0,5.093-1.337,6.476-3.734l3.865-6.695c6.155,4.476,11.565,9.887,16.041,16.042
		l-6.697,3.867c-3.571,2.061-4.796,6.626-2.732,10.2c1.383,2.397,3.892,3.734,6.473,3.734c1.266,0,2.55-0.321,3.726-1.001
		l6.734-3.889c3.061,6.828,5.136,14.189,5.936,21.935h-7.835c-4.125,0-7.467,3.345-7.467,7.467s3.342,7.467,7.467,7.467h7.835
		C155.167,130.893,124.4,159.305,87.12,159.305z"/>
	<path d="M108.582,90.576c-2.98-9.577-10.879-22.067-14.746-27.822c-2.776-4.123-9.621-4.123-12.397,0
		c-3.834,5.71-11.641,18.05-14.676,27.597c-0.261,0.804-0.563,1.589-0.731,2.43c-0.357,1.503-0.58,2.92-0.58,4.174
		c0,12.237,9.952,22.188,22.186,22.188s22.188-9.952,22.188-22.188c0-1.257-0.225-2.677-0.584-4.184
		C109.09,92.011,108.81,91.305,108.582,90.576z M87.637,104.208c-0.49,0-0.968-0.052-1.431-0.145
		c-3.235-0.664-5.677-3.535-5.677-6.963c0-3.918,3.189-7.108,7.108-7.108c3.918,0,7.108,3.189,7.108,7.108
		c0,3.428-2.442,6.299-5.677,6.963C88.605,104.156,88.128,104.208,87.637,104.208z"/>
</g>
</symbol><symbol id="icon-refresh-button" viewBox="0 0 408 408">
<g>
	<g id="refresh">
		<path d="M346.8,61.2C311.1,22.95,260.1,0,204,0C91.8,0,0,91.8,0,204s91.8,204,204,204c94.35,0,173.4-66.3,196.35-153H346.8
			C326.4,313.65,270.3,357,204,357c-84.15,0-153-68.85-153-153c0-84.15,68.85-153,153-153c43.35,0,79.05,17.85,107.1,45.9
			l-81.6,81.6H408V0L346.8,61.2z"/>
	</g>
</g>
<g>
</g>
<g>
</g>
<g>
</g>
<g>
</g>
<g>
</g>
<g>
</g>
<g>
</g>
<g>
</g>
<g>
</g>
<g>
</g>
<g>
</g>
<g>
</g>
<g>
</g>
<g>
</g>
<g>
</g>
</symbol><symbol id="icon-round-remove-button" viewBox="0 0 50 50">
<g>
	<g id="remove-circle-outline">
		<path d="M127.5,229.5v51h255v-51H127.5z M255,0C114.75,0,0,114.75,0,255s114.75,255,255,255s255-114.75,255-255S395.25,0,255,0z
			 M255,459c-112.2,0-204-91.8-204-204S142.8,51,255,51s204,91.8,204,204S367.2,459,255,459z"/>
	</g>
</g>

</symbol><symbol id="icon-settings">

 <g>
  <title>background</title>
  <rect fill="none" id="canvas_background" height="44" width="44" y="-1" x="-1"/>
 </g>
 <g>
  <title>Layer 1</title>
  <g stroke="null" id="Settings">
   <g stroke="null" id="svg_1">
    <path stroke="null" id="svg_2" fill-rule="evenodd" clip-rule="evenodd" d="m39.642846,18.785938c-0.059709,-0.530856 -0.678573,-0.929772 -1.213705,-0.929772c-1.730151,0 -3.265441,-1.016046 -3.909313,-2.587398c-0.657781,-1.609431 -0.233637,-3.486398 1.055793,-4.669373c0.40588,-0.371094 0.455192,-0.9923 0.114781,-1.423814c-0.885517,-1.124663 -1.891997,-2.140568 -2.990921,-3.02102c-0.430325,-0.34538 -1.061693,-0.297325 -1.434838,0.115923c-1.125336,1.246487 -3.146726,1.709757 -4.708709,1.057919c-1.625485,-0.683875 -2.65051,-2.331244 -2.550199,-4.099594c0.033015,-0.555446 -0.372864,-1.038388 -0.926541,-1.102883c-1.410252,-0.163135 -2.832868,-0.168194 -4.247335,-0.011241c-0.547354,0.06042 -0.953234,0.531981 -0.93483,1.080401c0.061535,1.750927 -0.975853,3.369491 -2.585182,4.028776c-1.543298,0.63048 -3.550498,0.171144 -4.673586,-1.064242c-0.371178,-0.406924 -0.992291,-0.456947 -1.424723,-0.119857c-1.131518,0.887899 -2.160617,1.904648 -3.054282,3.020036c-0.348559,0.433622 -0.29728,1.062134 0.112674,1.435195c1.314016,1.190141 1.7383,3.083408 1.055652,4.711386c-0.651739,1.552102 -2.263176,2.552411 -4.107968,2.552411c-0.598634,-0.01925 -1.025025,0.382616 -1.090494,0.926961c-0.166061,1.418615 -0.168028,2.864067 -0.008148,4.294204c0.059287,0.533105 0.696978,0.928507 1.23801,0.928507c1.64403,-0.042013 3.222451,0.976 3.884586,2.587539c0.660028,1.609431 0.235745,3.485274 -1.055652,4.669232c-0.403913,0.371094 -0.455192,0.991316 -0.114781,1.42283c0.877228,1.117496 1.883849,2.134386 2.986706,3.022144c0.432573,0.348612 1.061974,0.299432 1.436946,-0.113815c1.129551,-1.249578 3.1508,-1.712005 4.706601,-1.058903c1.629559,0.681767 2.654584,2.328996 2.554274,4.09833c-0.032734,0.555727 0.375112,1.039512 0.926541,1.103024c0.721423,0.084167 1.447202,0.12618 2.174947,0.12618c0.690796,0 1.381733,-0.037938 2.072529,-0.114799c0.547495,-0.06042 0.953093,-0.531981 0.934689,-1.081385c-0.063362,-1.749943 0.975853,-3.368508 2.583074,-4.026668c1.553694,-0.634695 3.552465,-0.170161 4.675693,1.063961c0.373286,0.406081 0.990043,0.45512 1.424863,0.119155c1.12941,-0.885791 2.156402,-1.901697 3.054282,-3.020177c0.348419,-0.432638 0.299247,-1.062134 -0.112815,-1.435055c-1.314016,-1.190141 -1.740407,-3.083689 -1.05776,-4.710543c0.641765,-1.531446 2.193351,-2.559717 3.862248,-2.559717l0.233497,0.006042c0.541313,0.04398 1.039355,-0.373061 1.104965,-0.925697c0.166342,-1.419879 0.168309,-2.864067 0.008429,-4.294204zm-18.731012,8.434969c-3.472666,0 -6.297385,-2.825146 -6.297385,-6.298335c0,-3.473049 2.82472,-6.298335 6.297385,-6.298335c3.472525,0 6.297245,2.825286 6.297245,6.298335c0,3.473189 -2.82472,6.298335 -6.297245,6.298335z"/>
   </g>
  </g>
 </g>
</symbol><symbol id="icon-speedometer" viewBox="0 0 50 50">
<g>
	<path d="M169.102,0C75.858,0,0,75.858,0,169.102s75.858,169.102,169.102,169.102s169.102-75.858,169.102-169.102
		S262.345,0,169.102,0z M169.102,308.203C92.4,308.203,30,245.803,30,169.102S92.4,30,169.102,30s139.102,62.4,139.102,139.102
		S245.803,308.203,169.102,308.203z"/>
	<path d="M167.738,62.895c0.267,0.021,0.532,0.033,0.8,0.024c5.269-0.032,9.497-4.32,9.475-9.577
		c-0.033-5.268-4.329-9.506-9.588-9.475c-5.257,0.033-9.497,4.32-9.464,9.589C158.986,58.444,162.847,62.518,167.738,62.895z"/>
	<path d="M60.999,205.607c-4.811,2.149-6.965,7.782-4.813,12.583c1.474,3.305,4.602,5.354,7.975,5.615
		c1.528,0.117,3.114-0.134,4.61-0.811c4.799-2.143,6.954-7.774,4.813-12.584C71.433,205.61,65.8,203.455,60.999,205.607z"/>
	<path d="M57.558,149.876c4.569,0.354,8.851-2.633,9.971-7.236v0.01c1.254-5.108-1.872-10.273-6.982-11.528
		c-5.11-1.245-10.264,1.883-11.517,6.993c-1.255,5.111,1.871,10.264,6.982,11.518C56.525,149.757,57.046,149.836,57.558,149.876z"/>
	<path d="M92.567,70.508c-4.13,3.256-4.832,9.25-1.57,13.381c1.715,2.166,4.19,3.389,6.747,3.586
		c2.308,0.179,4.679-0.469,6.633-2.019c4.132-3.262,4.833-9.247,1.569-13.379C102.692,67.947,96.698,67.245,92.567,70.508z"/>
	<path d="M289.141,136.4c-1.325-5.091-6.536-8.14-11.617-6.804c-5.099,1.326-8.148,6.527-6.814,11.627l0.002-0.01
		c1.053,4.039,4.539,6.791,8.48,7.096c1.025,0.078,2.083-0.009,3.145-0.282C287.428,146.701,290.469,141.49,289.141,136.4z"/>
	<path d="M278.044,204.316c-4.835-2.084-10.444,0.139-12.527,4.966c-2.083,4.836,0.14,10.434,4.966,12.527
		c0.997,0.432,2.021,0.671,3.047,0.751c3.941,0.306,7.817-1.89,9.482-5.716C285.095,212.008,282.871,206.4,278.044,204.316z"/>
	<path d="M244.653,69.424c-4.176-3.199-10.15-2.42-13.358,1.757c-3.198,4.166-2.418,10.15,1.749,13.358l0.008,0.001
		c1.515,1.168,3.282,1.802,5.059,1.938c3.105,0.24,6.262-1.045,8.301-3.695C249.61,78.605,248.829,72.632,244.653,69.424z"/>
	<path d="M226.618,103.218c-22.619,16.855-49.847,37.337-58.86,44.921c-4.786,0.234-9.505,2.156-13.16,5.811
		c-7.811,7.811-7.811,20.475,0,28.283c7.811,7.811,20.474,7.811,28.285,0c3.656-3.655,5.578-8.376,5.811-13.162
		c7.576-9.005,28.061-36.233,44.921-58.856c1.483-1.99,1.282-4.768-0.473-6.522C231.385,101.936,228.608,101.736,226.618,103.218z"/>
</g>

</symbol><symbol id="icon-telegram-logo" viewBox="0 0 50 50">
<g>
	<path d="M152.531,179.476c-1.48,0-2.95-0.438-4.211-1.293l-47.641-32.316l-25.552,18.386c-2.004,1.441-4.587,1.804-6.914,0.972
		c-2.324-0.834-4.089-2.759-4.719-5.146l-12.83-48.622L4.821,93.928c-2.886-1.104-4.8-3.865-4.821-6.955
		c-0.021-3.09,1.855-5.877,4.727-7.02l174.312-69.36c0.791-0.336,1.628-0.53,2.472-0.582c0.302-0.018,0.605-0.018,0.906-0.001
		c1.748,0.104,3.465,0.816,4.805,2.13c0.139,0.136,0.271,0.275,0.396,0.42c1.11,1.268,1.72,2.814,1.835,4.389
		c0.028,0.396,0.026,0.797-0.009,1.198c-0.024,0.286-0.065,0.571-0.123,0.854L159.898,173.38c-0.473,2.48-2.161,4.556-4.493,5.523
		C154.48,179.287,153.503,179.476,152.531,179.476z M104.862,130.579l42.437,28.785L170.193,39.24l-82.687,79.566l17.156,11.638
		C104.731,130.487,104.797,130.533,104.862,130.579z M69.535,124.178l5.682,21.53l12.242-8.809l-16.03-10.874
		C70.684,125.521,70.046,124.893,69.535,124.178z M28.136,86.782l31.478,12.035c2.255,0.862,3.957,2.758,4.573,5.092l3.992,15.129
		c0.183-1.745,0.974-3.387,2.259-4.624L149.227,38.6L28.136,86.782z"/>
</g>

</symbol><symbol id="icon-wall-clock-of-circular-shape" viewBox="0 0 50 50">
<g>
	<g>
		<path d="M14.439,11.746C14.229,8.451,13.5,6,13.5,6s-0.728,2.451-0.94,5.746c-0.169,0.09-0.331,0.197-0.475,0.34
			c-0.143,0.142-0.249,0.304-0.34,0.474C8.451,12.772,6,13.5,6,13.5s2.451,0.729,5.746,0.939c0.09,0.168,0.197,0.332,0.34,0.474
			c0.781,0.78,2.048,0.78,2.827,0.001c0.78-0.781,0.782-2.048,0.001-2.829C14.771,11.943,14.609,11.836,14.439,11.746z"/>
		<path d="M13.5,0C6.056,0,0,6.056,0,13.5C0,20.943,6.056,27,13.5,27C20.943,27,27,20.943,27,13.5C27,6.056,20.943,0,13.5,0z
			 M13.5,25C7.159,25,2,19.841,2,13.5S7.159,2,13.5,2S25,7.159,25,13.5S19.841,25,13.5,25z"/>
		<path d="M13.5,2.5c-6.065,0-11,4.935-11,11c0,6.064,4.935,11,11,11c6.064,0,11-4.936,11-11C24.5,7.435,19.564,2.5,13.5,2.5z
			 M13.5,23.5c-5.514,0-10-4.486-10-10c0-5.514,4.486-10,10-10c5.514,0,10,4.486,10,10C23.5,19.014,19.014,23.5,13.5,23.5z"/>
	</g>
</g>

</symbol><symbol id="icon-wall-clock" viewBox="0 0 50 50">
<g>
	<g>
		<path d="M15.58,0C6.976,0,0.001,6.976,0.001,15.58c0,8.604,6.975,15.58,15.579,15.58c8.604,0,15.579-6.977,15.579-15.58
			C31.159,6.976,24.185,0,15.58,0z M15.58,28.16c-6.937,0-12.579-5.643-12.579-12.58C3.001,8.643,8.643,3,15.58,3
			c6.937,0,12.579,5.643,12.579,12.58C28.159,22.518,22.517,28.16,15.58,28.16z"/>
		<path d="M22.151,14.58h-4.442c-0.233-0.497-0.633-0.896-1.129-1.129V6.138c0-0.552-0.446-1-1-1c-0.553,0-1,0.448-1,1v7.313
			c-0.801,0.377-1.358,1.185-1.358,2.129c0,1.303,1.056,2.359,2.358,2.359c0.944,0,1.752-0.559,2.129-1.359h4.442
			c0.553,0,1-0.448,1-1S22.704,14.58,22.151,14.58z"/>
	</g>
</g>
</symbol></svg>